<svg xmlns="http://www.w3.org/2000/svg" width="100" height="100" viewBox="0 0 100 100">
  <path fill="#BF4385" d="M48.67 22.13c-6.81 0-12.33 5.52-12.33 12.33 0 6.81 5.52 12.33 12.33 12.33 6.81 0 12.33-5.52 12.33-12.33 0-6.81-5.52-12.33-12.33-12.33zm2.96 73.35c1.95-22.25 26.44-42.2 26.44-61.55C78.08 17.98 64.91 5.06 48.67 5.06c-16.24 0-29.41 12.92-29.41 28.87 0 19.35 24.72 39.29 26.56 61.55h5.81zm-2.96-80.94c11 0 19.92 8.92 19.92 19.92 0 11-8.92 19.92-19.92 19.92-11 0-19.92-8.92-19.92-19.92 0-11 8.92-19.92 19.92-19.92z"/>
</svg>