
<svg xmlns="http://www.w3.org/2000/svg" xmlns:xlink="http://www.w3.org/1999/xlink" width="97.7" height="79.5" viewBox="0 0 97.7 79.5"><defs><path id="a" d="M-2.2 0H99.2v79.5H-2.2z"/></defs><clipPath id="b"><use xlink:href="#a" overflow="visible"/></clipPath><g clip-path="url(#b)"><defs><path id="c" d="M-2.2 0H99.2v79.5H-2.2z"/></defs><clipPath id="d"><use xlink:href="#c" overflow="visible"/></clipPath><g clip-path="url(#d)"><path fill="none" d="M50.7 79.5H.7c-.5 0-.6-.1-.6-.6V.8C.1.3.2.2.7.2h100c.5 0 .6.1.6.6v78.1c0 .5-.1.6-.6.6h-50zM32.3 13.4h-.1.1c0 .1.1.1.2.2v-.1c-.1 0-.2-.1-.2-.1zm-21.2.5c.1 0 .2 0 .3-.1l-.1-.1c-.1.1-.1.2-.2.2l-.1.1c-.2.2-.4.4-.5.6.2 0 .5.1.7.1h.8c.1 0 .1-.1.2-.1-.1 0-.1-.1-.2-.1-.3-.1-.5-.3-.8-.4-.1-.1-.1-.1-.1-.2zm2.2 1.1h-.5c-.1.1-.1.3-.2.4.1.1.3.2.4.2.2 0 .5-.2.3-.6zM39.7 4.4l.4.4.1-.1c-.2-.1-.3-.2-.5-.3v-.7c.2 0 .5 0 .7.1.2.1.4.2.7.4-.5-.8-.8-.9-1.5-.7-.2.1-.3.2-.5.2-.1 0-.2.1-.4.1.2.1.2.2.3.3.2.1.5.2.7.3zM15.3 70.7c.1 0 .1 0 0 0 .1 0 0 0 0 0 .5-.1.2-.7.5-.9.1 0 0-.2 0-.4-.2 0-.4-.1-.5 0-.3.3-.5.6-.7.9 0 0 .1.2.1.3.3 0 .5 0 .6.1zm40.5-9.8c0 .2.1.4.1.6 0 .4-.1.8-.2 1.2.3-.1.5-.1.7-.1 0 .2.1.3.1.5v.6c0 .1.1.2.1.2.1-.1.2-.1.3-.2.1-.1.1-.3.2-.5.2-.8.3-1.6.6-2.3.3-.8.4-1.5.4-2.3 0-.1-.1-.2-.2-.2 0 0-.2 0-.2.1l-.3.6c-.2.6-.3 1.5-1.3 1.4-.1 0-.2.1-.3.2-.1-.2-.2-.4-.2-.6-.1-1.1.2-2 .7-3 .4-.9.8-1.9 1.2-2.8.3-.7.4-.8 1.1-.4h.3c0-.1 0-.2-.1-.3-.2-.3-.5-.6-.8-.9 0-.1.1-.1.1-.2.3.2.6.3.9.5.1 0 .3 0 .4.1 0-.1-.1-.2-.1-.3 0-.2 0-.5.2-.6.3-.2.6-.3.6-.7 0-.1.2-.2.3-.2 0 0 .2.1.2.2.1.2.1.5.2.7 0-.3.1-.5.1-.8 0 0 0-.1.1-.1.2.1.3.3.5.4v-.2c.2-.1.4-.2.7-.3.3-.1.7 0 1-.1.3-.1.6-.4.8-.5.1 0 .3.1.3.2.1.2.2.5.3.8.3.7.5 1.5.8 2.3.1-.2.2-.3.4-.5.1-.1.2-.1.3-.1.1.6.6.5 1 .6.1 0 .2.3.3.5h-.5c-.2 0-.4-.1-.5 0-.1 0-.3.2-.3.3 0 .1.1.2.1.3.2-.1.3-.3.5-.4.7.1.2 1 .8 1.4h-.3c-.2.1-.5.2-.7.4.1.2.3.4.4.5.3.3.4.5.1.8.5.2 1 .3 1.4.5.8.4 1.5 1 2.2 1.4.5.3 1 .5.3 1 .3.1.6.3.9.4.8.2 1.2 1.1 2.1 1 .1 0 .2.2.3.2.2.1.5.3.7.3.3.1.7 0 1 0 .3 0 .5 0 .3.4s-.3.7.3 1.1c.8.5 1.7.9 2 1.9 0 .1.2.2.3.2.6-.1 1.2-.2 1.9.1.7.3 1.4.6 1.9 1.2.3.4.7.9 1.1 1.3.6.5 1.2 1 1.7 1.6.5.4 1 .8 1.6 1.3 1.4 1.2 2.9 2.4 4.3 3.5.7.5 1.5 1 2.1 1.5.6.5 1.2 1 1.7 1.6.3.3.6.4.9.4h.8c1 0 .9 0 1.1-.9.1-.6.3-1.2.4-1.9 0-.1-.1-.3-.1-.5-.1 0-.2.1-.3.1-.1.1-.3.3-.4.3-.1 0-.2-.2-.4-.3-.2-.3-.4-.5-.7-.8.2-.1.4-.2.5-.3.4-.3.5-.7.2-.8-.5-.1-.5-.3-.5-.7 0-.5-.3-.7-.7-.4-.4.2-.6.1-.6-.3v-1.3c0-.3.2-.7-.3-.3 0 0-.1 0-.2-.1-.2-.2-.3-.4-.5-.6-.5-.9-.8-.9-.1-1.8v-.1H94c-.2 0-.4-.1-.6-.1.1-.1.3-.3.3-.4.1-.2.1-.5 0-.6l-1.2-.9c.4-.1.8-.2 1.1-.4.1-.1.2-.5.1-.5-.3-.3-.6-.5-1.2-.5-.9 0-1.4.5-2 1-.4.3-1 .4-1.4.1-.1-.1-.1-.5-.1-.8-1.2.4-.6-.7-.8-1-.4 0-.8.2-1 .1-.7-.2-1.3-.7-1.7-1.3-.5-.8-1-1.5-2-1.8-.5-.1-.8-.4-.9-1-.1-.4-.3-.8-.5-1.2-.1-.2-.4-.4-.5-.6l-.5.5c-.1-.2-.4-.4-.5-.6-.3-.7-.7-1.4-.9-2.1-.2-.7-.5-1.3-.6-2.1-.1-.5.1-.9 0-1.4 0-.1-.2-.3-.4-.4-.1.1-.3.4-.3.4.3.4-.1.3-.2.3-.7.1-1.1-.4-1.2-1.1v-1.3c0-.1-.2-.3-.3-.4-.1.1-.2.3-.2.4v.7c-.2-.1-.3-.2-.3-.3-.2-.6-.7-.6-1.3-.6-.5-.1-.9-.4-1.3-.6-.1 0 0-.2-.1-.3h.3c.2 0 .3 0 .5-.1-.9-.3-1.6-.7-2.2-1.4-.5-.6-1-1.2-1.6-1.7-.8-.6-1.3-1.4-1.7-2.3-.1-.1.1-.4.2-.5.3-.2.6-.2.8-.3-.2-.2-.4-.3-.4-.5-.1-.3-.2-.6-.2-1 0-.1.1-.2.2-.2l.2.1c.1.1.2.3.3.5.6-.7 1-.8 1.6-.2.3.3.5.1.5-.1 0-.6.3-.6.8-.3-.1-.5-.3-.8-.3-1.1 0-.6.1-1.1.3-1.6.1-.4 0-1.1.7-.9 0-.3.1-.5.1-.7.3-1 .5-1.9 0-2.9-.1-.1-.1-.3-.1-.4.2 0 .4-.1.5-.1.6.3.6-.3.8-.6.3-.5.5-1.1.8-1.6.1-.1.1-.4 0-.5-.6-.8-.7-1.7-.3-2.6.2-.5.5-.9.7-1.3.5-1.3.9-2.5 1.3-3.8.3-.8.7-1.7.8-2.5.2-1.5.4-3.1.5-4.7 0-.7-.1-1.5-.2-2.1-.2-.6-.6-1.1-.9-1.7-.4.4-.4.4-.4 1.1 0 1-.1 1.1-1.1 1.1-.6 0-1.1.2-1.7.3.4.2.9.2 1 .4.1.2-.2.7-.2 1-.3-.1-.5-.1-.6-.2-.2-.1-.4-.2-.6-.2.1.6 0 .8-.8 1.1.1.1.2.1.2.2.1.1.3.2.4.4-.2.1-.4.3-.7.3-.3.1-.6 0-.8 0-.1.4.3.5.1 1-.3.7-.8.7-1.4.6l-.2-.2s0 .1-.1.1c.1 0 .1.1.2.1 0 .3 0 .6-.4.4-.5-.2-.6 0-.5.5 0 .2-.2.3-.3.5-.1-.1-.3-.2-.4-.3-.2-.2-.5-.4-.7-.6h-.1l.1.1c-.3.9-.2 1.3.6 1.8.4.2.8.4 1.2.7.2.2.4.5.6.8l-.6.3c.3.5.3.6-.3.8-.1 0-.2.3-.1.4.5.9.5 1.1-.1 1.8-.5.6-.8 1.2-.7 1.9 0 .3-.1.5-.5.6-.4.1-.8.5-1.1.7-.3.2-.4.5.1.6v.4c-.8.5-1.7.9-2.5 1.4-.6.3-1.2.4-1.8.3-.1 0-.3.1-.4.1.1.2.1.3.2.5 0 0 .2-.1.3-.1h.3c0 .3.1.5.1.8 0 .1-.2.3-.3.4-.2.1-.5 0-.8.1-.7.1-.9-.6-1.2-1-.1-.1.1-.5.2-.8 0-.2.4-.4 0-.5-.2-.1-.6-.2-.7-.1-.5.3-.7.2-.8-.3 0-.1-.1-.2-.1-.3-.4-.5-.8-1-1.2-1.6-.1-.1-.1-.2-.2-.4.1 0 .2-.1.4-.1s.4-.1.5-.1c-.3-.2-.7-.3-1-.5-.4-.3-1.4-.1-1.2-1.1h-.1c-.5-.4-1-.7-1.5-1.1-.2-.2-.4-.4-.6-.7-.5-.6-.9-1.2-1.3-1.8-.7-.9-1.3-1.7-2-2.6l-1.2-1.5c-.3-.3-.7-.7-.7-1 0-.6.3-1.1.5-1.7.4-1 .9-1.9 1.1-2.8.2-.9-.1-1.9-.2-2.8 0-.1-.1-.2-.1-.2h-.2c-.2.3-.3.6-.4.9-.3 1.2-.6 1.5-1.8 1.5h-1.3c.3.2.5.3.5.4.1.2.1.6 0 .6-.5.1-.5.5-.6 1.1-.4-.6-.6-1.1-.9-1.5-1-1.5-2.1-2.9-3.5-4.1-.2-.2-.4-.4-.6-.5-.3-.4-.4-.4-.5-.4v.3l.3 1.2c.1.5.2 1 .3 1.4.2.7.4 1.4.7 2 .3.8.6 1.6 1.5 2 .1.1.2.3.3.4-.3.3-1-.2-1 .6H44c-.2.2-.3.5-.5.7-.3.3-.5.8-1.1.4 0 0-.2 0-.2.1-.1.7-.5.4-.8.2-.1 0-.4 0-.4.1-.2.3-.2.6-.4.8 0 .1-.4 0-.5 0-.2-.2-.3-.5-.1-.8.1-.2.9-.8 0-1.1-.1 0-.1-.5 0-.7.1-.3.3-.2.5 0 .1.1.2 0 .3 0 .1-.6-1-.2-.7-1 .2-.4-.1-1.1.8-1-.6-.3-.9-.6-.8-1.2 0-.1-.1-.2-.1-.2-.3-.6-.5-1.2-.8-1.9-.2-.5-.3-1-.6-1.5-.1-.2-.5-.3-.8-.4-.2-.1-.3-.2-.5-.3-.5-.4-.7-1-1.4-1.1h-1.2c-.3 0-.7.1-.8.2-.2.7 0 1.1.4 1.2.4 0 .3.3.3.5-.2.5 0 .7.5.9.2 0 .3.1.5.1.1.1.2.2.3.2-.4.4 0 .6.2.8.2.2.4.5.3.8-.1 1.2 0 1.2-1.2 1.1h-.1l.1.1c0 .2-.1.3-.1.5 0 .1-.1.2-.2.3h-.2c-.1-.3-.3-.5-.7-.5-.3 0-.6-.1-.8 0-.6.3-1 .1-1.5-.3s-.8-1.1-1.5-1.1l-.1-.2c0-.1.1-.2.2-.2.1-.1.3-.1.4-.2.5-.3 1.3 0 1.4.6 0 .1.2.3.4.3.1 0 .2-.1.3-.2.3-.5.5-1.1.7-1.7.1.3.1.7.3.8.2.2.7.3.9.2.2-.1.2-.6.3-.9-.4-.1-.5-.7-1.1-.5-.2.1-.4.1-.7.1-.3 0-.5-.1-.7.2-.1.2-.6.4-.8.3-.3-.2-.6-.6-.8-.9-.6-.7-1.3-1.1-2.2-1.3-.6-.1-1.3 0-2.1 0 .3.4.3.4-.1.6-.7.2-1.4.3-1.7 1.1-.1.3-.3.7-.9.7-.3 0-.7.2-.8.3-.1.5-.4.3-.7.4-.2 0-.4 0-.7.1v.2h2c.4 0 .9-.4 1.2.3 0 .1.2.2.4.2.5 0 .3.2.2.5-.1.2-.1.4-.1.5.6.3.4.6.1 1-.1.2-.1.4-.2.5h.6c-.1.5-.3 1-.4 1.6-.1.5-.2 1.1-.3 1.7 0 .1-.1.2-.1.3h.4c.2 0 .4 0 .5.1.1.1 0 .3 0 .5 0 .4-.3.8.1 1.2-.1-.7.2-.9.8-.8.1 0 .2-.1.4-.1s.5-.1.7-.1c0 .2-.1.3-.1.5 0 .1.2.1.3.2.8.3 1.7.3 2.2 1 .2.3.5.5 1 .2.2-.2.6-.2.8-.3.8-.3 1.5-.6 2.3-.9.3-.1.6-.4.9-.5l1.2-.3c.6-.2 1.3-.4 1.9-.7.5-.3.6 0 .5.3-.2.5.3.7.5 1 .2.3.6.5.9.8.5.5.5 1.2 0 1.4-.3.1-.4.3-.4.5.1.4-.1.4-.4.4h-.5c.6.8.1 1.8-.4 2.3-.6.6-1.3 1.2-1.5 2.2 0 .2-.2.6-.3.6-.6.2-1.2.4-1.7.9-.3.2-.4.4 0 .6l.3.3c-.2.1-.3.3-.4.3-.3.1-.7.3-.9.2-.6-.3-.6-.5-.2-1.1.1-.2.1-.4.2-.6-.2.1-.5.1-.7.2-.3.1-.5.1-.8.1-.1 0-.1-.2-.2-.3-.2-.4-.4-.8-.7-1.1-.4-.3-.6-.6-.2-1.1h-.4c-.5-.1-1.2.2-1.1-.7 0 0-.1-.1-.2-.1-.4-.2-.8-.5-1.2-.7-.9-.6-1.7-1.3-2.5-2-.5-.5-1-1.1-1.6-1.5-.6-.3-1-1.4-2-.8h-.1c-.3-.2-.6-.5-.8-.7-.5-.4-.9-.9-1.3-1.3-.5-.5-1.2-.8-1.7-1.3-.3-.2-.6-.6-.9-.7-.9-.2-1.8-.8-2.8-.6-.1 0-.2-.1-.2-.1 0 .1 0 .2.1.3.4.6.9 1.2 1.3 1.9.5 1 1.4 1.5 2.2 1.9.3.2.6.2.7.6.1.4.5.7.6 1.3.1.8.8 1.3 1.7 1.7.9.3 1.7.7 2.5 1.2.2.1.5.6.5.7-.2.5.2.5.4.6.1.1.4.1.5.2.9.7 1.7 1.3 2.4 2.2.3.4.6.7.9 1.1.3.5 1 .7.9 1.5 0 .3 0 .5.4.3.1-.1.6.1.6.2.2.4-.2.3-.5.4-.1 0-.3.2-.3.2.1.2.2.3.3.5.1.2.3.5.3.8 0 .2-.3.4-.5.4-.3.1-.6 0-.9 0-.2 0-.4.2-.6.2.2.1.4.2.6.2h.2c-.1.7-.2 1.3-.3 2-.1.6-.4 1-.9 1-.1 0-.1.1-.2.2-.4.7-.7 1.4-1.2 2-.4.5-.7 1-1 1.5-.2.4-.6.8-.9 1.2h-.2c.1 0 .1.1.2.1-.4.4-.9.4-1.2.9-.1.1-.3.2-.4.4-.1.1-.3.2 0 .3-.2.1-.4.3-.6.4-.5.4-.9.8-1.4 1.2L18.9 48l-1.2 1.2h-.1l.1.1c-.3.4-.6.8-.8 1.3-.2.3-.3.6-.7.7-.2 0-.5.3-.5.5-.1.5-.2 1.1-.3 1.6 0 .2-.1.5-.1.7 0 .2.1.5.1.6-.1.2-.3.4-.5.6-.1.1-.4.3-.4.3-.3-.3-.4.1-.5.2-.5.7-.9 1.4-1.3 2.1-.1.1-.1.4-.1.4.5.2.3.7.2.9-.2.4 0 1.2-.9 1 0 0-.1.2-.1.3 0 .3 0 .7-.1 1-.3.7-.5 1.4-.9 2-.3.4-.4 1-1 1.2-.2.1-.5.5-.4.7.1.5-.2.7-.4 1-.3.4-.7 1-.6 1.3.4.8-.2 1.1-.4 1.5-.3.6-.7 1.1-1.1 1.6-.3.5-.5 1.2-.9 1.6-.7.7-.9 1.5-1.2 2.4 0 .1-.1.3-.1.4-.1.3-.3.5-.3.8-.1.5-.1 1-.2 1.5.5.1.9.1 1.2-.5-.4 0-.2-.2 0-.3.7-.4 1.2-1 1.7-1.6.6-.7.9-1.5 1-2.3 0-.1.1-.2.2-.3.3-.2.6-.4.8-.6.2-.2.4-.4.6-.5.5-.2.9-.6 1.1-1.1.3-.4.6-.8.8-1.3.2-.5.3-1 .5-1.5.1-.2.2-.4.2-.6.1-.9.4-1.2 1.3-1.2.5 0 .5.2.3.6-.2.4-.6.8-.3 1.2.2-.1.4-.2.5-.3 0 .2 0 .3-.1.5l-.3 1.2c0 .1.1.2.2.3.1-.1.1-.2.2-.3.2-.5.5-.9.7-1.4.6-1.1 1.3-2.3 1.9-3.4.1-.2.1-.8 0-.8-.5-.1-.4-.5-.4-.8 0-.5-.1-1-.4-1.4-.1-.2-.1-.4-.1-.7.4.2.2-.2.4-.4.2-.1.3-.4.4-.6.4-.6.8-1.1 1.3-1.6.2-.3.6-.4.8-.6-.1-.3-.2-.6-.3-.8.2 0 .4-.1.6 0 .2 0 .3.3.4.4 0 .1.1.1.1.2.1-.1.2-.2.1-.2-.1-.4.2-.7.4-1 .3-.3.5-.6.8-.9.1-.1.3-.2.4-.1.6.3 1.1.4 1.7 0 .1-.1.3 0 .4 0h.3c-.1-.1-.2-.2-.2-.3-.1-.4-.1-.9-.1-1.3 0-.1.5-.1.8-.1.1 0 .2.1.2.1.5-.2.9-.4 1.4-.6.1 0 0-.3 0-.4 0-.1-.1-.1-.2-.3.2 0 .3 0 .4-.1.8-.3.9-.2 1 .6 0 .2.2.5.4.7.4.3.9.4 1 1 0 .1.2.1.3.1.1.1.3.2.4.2-.1.1-.2.1-.3.2-.1.1-.2.2-.2.3 0 .2.2.5.2.4.3 0 .6-.1.9-.2.1 0 .2-.3.1-.3-.4-.3-.1-.6.2-.9.1.4.1.8.2 1.1 0-.6.4-.9.9-1.1.3-.2.7-.3.6-.8 0-.1.2-.3.3-.4.2-.1.5-.2.6-.3.2-.4.3-.1.4 0 .6.6 1.1 1.2 1.7 1.8.1.2.4.4.3.6-.1.8.6 1.2 1 1.6.5.3.4.5 0 .7-.3.2-.4.4-.2.7.2.4.3.9.5 1.3.1.2.3.6.4.6 1 0 1.3.8 1.6 1.5.3.4.3 1 .5 1.5.1.3.1.5.1.8 0 .3-.1.7.1.8.3.3.3.6.3 1 0 .2.1.5.2.7.2.8.5 1.6.7 2.3.3.9.6 1.9 1.1 2.7.4.7.6 1.6 1 2.4.3.7.4 1.5 1.3 1.8.4.1.7.5 1 .7.1 0 .1.1.1.2.1-.1.2-.2.2-.3-.1-.4-.1-.8-.3-1.1-.3-.6-.1-1 .4-1.4.3-.2.7-.4 1-.6.1 0 .1-.2.1-.2-.1 0-.1.1-.2.1-.2 0-.4 0-.5-.1-.1-.1-.1-.3-.2-.4v-.5c0-.1.1-.3.2-.3.3-.1.6-.1.9-.1-.3-.6-.3-1 .3-1.3-.2 0-.4 0-.6-.1-.1 0-.2-.1-.4-.1.1-.1.1-.3.2-.4.1-.1.1-.2.2-.3.3-.2.4-.4.3-.9-.2-1 .1-1.4.7-1.6-.3-.5-.2-.6.3-.6.6 0 .2-.4.2-.6 0-.2-.2-.3-.3-.5-.1-.1-.1-.2-.1-.3.2 0 .3-.1.5-.1s.3.1.5.1.4 0 .5-.1c.1-.1.1-.4 0-.5-.3-.3-.5-.6-1-.6-.5.1-.9 0-1.4.1-.5.1-.8-.1-1.1-.5-.3-.4-.2-.5.2-.5v-.1c-.2 0-.3-.1-.5-.1 0-.1 0-.2.1-.2.5-.7-.3-.7-.5-1-.1-.1-.4.2-.4-.1-.1-.6-.1-1.3-.2-1.9-.1-.4-.1-1-.3-1.1-.5-.2-.5-.6-.5-.9.1-.6-.2-1-.5-1.5s0-.8.2-1.1c.1-.1.3-.4.2-.5-.1-.2-.3-.3-.5-.4-.2-.1-.4 0-.8-.1.7-.6 1.1-1.2 1.9-1.2.1 0 .3-.2.3-.2 0-.2-.1-.3-.2-.5-.1-.1-.2-.3-.2-.4.2-.4.2-.9.8-1 .1 0 .1-.3.1-.5l-.2-.1c-.1.1-.3.2-.4.2-.1.1-.4.2-.4.2-.2-.2-.4-.4-.4-.6.1-.5.4-1 .5-1.5.1-.2 0-.4.1-.6 0 0-.2-.1-.2 0-.1.1-.1.3-.2.4v.2l-.2.2c-.1 0-.2-.1-.2-.2 0-.6-.5-.7-.9-.9-.3-.1-.6-.5-.9-.7-.1-.1 0-.4.1-.4.4-.2.2-.3 0-.5-.2-.1-.3-.3-.4-.5-.4-.8-.9-1.7-1.2-2.5-.4-.9-.9-1.7-.4-2.7.1-.1.2-.3.2-.4l.6-1.2c.1-.4.2-.8.2-1.2 0-.4-.1-.8-.1-1.3 0-.2-.1-.5.4-.3.3.1.8.4 1-.3.2-.6.8-1.2 1.2-1.8.2-.3.3-.6.1-.9-.2-.3-.2-.7-.2-1 .3-1.3.9-2.4 1.8-3.3.5-.5.7-1.2 1.1-1.8.3-.4.5-.8.8-1.3.2.2.4.4.5.6l.9 1.2c.5.7 1 1.5 1.6 2.2.4.5 1 .9 1.6 1.3.1-.6-.3-1.3-.8-1.8-.3-.3-.6-.7-.7-1.1-.1-.4.1-.8.2-1.2.2 0 .4 0 .5.1 1 1.1 2.1 2.2 3.1 3.4 1 1.2 1.7 2.6 2.6 3.9.3.4.5.7-.3.7-.2 0-.3.2-.5.3v.2c.3 0 .7-.1 1-.1.2 0 .5-.1.7-.1.1 0 .2.1.3.2-.1.1-.1.2-.2.3-.3.2-.7.4-1.2.6.8 0 1.2.2 1.2.9 0 .4.3.8.5 1.1.3.4.3.4-.2.5l-.6-.6c-.1-.1-.2-.1-.2-.1 0 .1-.1.2 0 .3.2.4.5.4.9.4.3.3.2.5-.2.5-.2 0-.3 0-.6.1 1.3.6.3 1.5.5 2.2.4-.2.8-.8 1.2-.3.1.1-.1.5-.1.7.4 0 .8 0 1.3.1v.2c-.2 0-.5 0-.7.1-.2 0-.3.2-.5.3 0 0 .1.3.2.4.2.2.1.4 0 .5-.2.2-.3.5-.5.7-.2.3-.5.6-.8.8-.1 0-.3-.3-.5-.4l-.9-.3-.2-.2-.1.1c.1 0 .1.1.2.1l.7.7c.5.3.4.6.1.9-.2.3-.5.4-.8.7-.8.8-1.3 1.8-1.7 2.9 0 .1.2.3.3.4 0 .1.2.1.2.1-.1.4-.1.8-.3 1.2-.1.1-.5.1-.7.1-.2 0-.5.1-.5.2 0 .2.1.5.2.7 0 .1.2.2.3.2.5.2.4.5.1.8-.2.3-.4.5-.6.8-.1.3-.2.6-.3 1-.2-.4-.4-.6-.5-.9-.1 0-.1.1-.2.1.1.4.3.8.4 1.2.1.3 0 .6-.1 1 0 .1-.1.2-.1.4-.1.7-.1 1.4-.2 2-.2 1-.6 2-.9 3-.3.9-.5 1.9-.7 2.8 0 .1-.2.2-.3.3.6.2.8.5.3 1-.1.2-.3.4-.4.6-.2.6-.4 1.2-.5 1.8-.2.7-.3 1.5-.5 2.2-.4 1.2-.1 2.4.1 3.6 0 .1.1.2.2.3l.3-.3c.1-.1.2-.3.3-.5.3-.4.7-.7 1-1.1.3-.4.6-.9.8-1.4.2-.5.4-1.2.3-1.7-.1-.4-.1-.6.2-.9.2-.2.3-.4.4-.6.1-.1.3-.3.4-.3.6.1.8-.5.9-.7.2-.6.2-1.3.3-1.9.1-.7.1-1.4.2-2.1.1-.8.2-.8 1-.8.9-.6.9-.5.9-.5h-.1c0 .1.1 0 .1 0zM21.9 26c-.1 0-.1 0 0 0-.1 0-.1 0 0 0-.1 0-.1 0 0 0 0 .1 0 .3.1.4 0 .1.1.3.1.3-.2.1-.4.2-.5-.1-.2-.4-.5-.5-.9-.4-.1 0-.2.1-.5.1.2.1.3.2.4.3.6.4 1.3.7 1.9 1.1.7.6 1.3 1.2 2 1.8.1.1.4.2.5.1.1-.1.2-.3 0-.6-.5-.7-1.3-1.3-1-2.2-.3-.1-.5-.1-.7-.2-.6-.1-.8-.7-1.4-.6zm38.9-6v.8c.1 0 .2 0 .3-.1 0-.2-.1-.5-.3-.7.1-.2.3-.3.4-.5l.3 1.2c0 .1.2.1.3.2v-.3c0-.2 0-.4.1-.6.1-.3.3-.6.4-.9.2.5.2.5.6.2h.1c.7-.2 1.3-.4 2-.1.3.1.8.1 1.1.1.4 0 .9-.2 1.3-.2.9 0 1.5-.5 2-1.1l.6-.9c-.3-.1-.7-.1-.5-.6.1-.4.2-.6.7-.5.2 0 .4-.1.5-.1-.1-.2-.1-.3-.2-.5s-.5-.5-.4-.7c.1-.6.4-1.2.6-1.8.1.1.3.2.5.4 0-.4-.2-.7-.6-1l-.3-.3c.2-.4-.1-.7-.3-1.1-.7-1.2-1.4-2.3-2.4-3.2-.3-.2-.8-.6-.9-.5-.7.5-1.2-.1-1.7-.2-.5-.2-1.7.3-1.9.8-.1.6-.5.7-1.1.4-.1 0-.3.1-.3.1.1.5-.1.9-.2 1.4v.2c-.1 0-.2 0-.2-.1-.1-.1-.1-.2-.1-.3-.2.4-.4.9-.8 1.3-.3.3-.7.6-1.1.9-.1.1-.4 0-.5-.1-.6-.3-1.2-.6-1.8-1v.5c.1.4.1.6-.4.6s-.9.3-1.3.5v.1h.6c.1 0 .2.1.3.1-.1.1-.1.2-.2.2-.1.1-.3.1-.4.1-.1 0-.2.1-.2.1 0 .2-.1.5-.1.7 0 .1.2.2.3.2h.4c-.1.1-.1.2-.2.3-.2.2-.4.4-.1.8.1.2.1.6 0 .7-.5.3-.1.7-.4 1l.1.2c.6.1.4.3.1.6-.2.1-.3.3-.4.5-.1.1 0 .2-.1.4h.4c.1 0 .2-.1.3-.2.4-.5.9-1 1.3-1.6.4-.6 1.1.4 1.4-.4l.1.1c.2.3.9.3.8.9 0 0 .3.1.4.2.1.1.3.1.3.2.2.7.3 1.4.5 2.2.1.3.3.3.3.4zM48.9 76.4c-.2.2-.4.4-.6.4-.1 0-.3-.3-.4-.4-.1-.1-.1-.2-.1-.3l-.2-.2c-.1.1-.2.2-.2.3 0 .3-.1.5.3.7.4.2.8.5 1.2.7.1.1.3.1.5.1 0-.1 0-.3-.1-.4-.1-.4-.2-.6-.4-.9zM38.7 2v-.5c-.1-.4-.4-.7-.8-.5-.3.1-.5.5-.6.8-.1.3.3.4.6.4h.3c.6.4.5-.1.5-.2zM54 36.9l-.1.1 1.7 1.7c.1.1.3.1.4.2 0-.2 0-.4-.2-.6-.4-.4-.9-.8-1.3-1.2-.2-.1-.4-.1-.5-.2zM10.2 13.5c-.4-.2-.7-.3-1-.5-.2.3-.3.7-.5 1 .4 0 .6 0 .8-.1.2-.1.4-.2.7-.4zm9.2 14.4l.2-.4c-.2-.3-.4-.5-.6-.7l-.6.6c.3.1.7.3 1 .5zm39.4 36.8c-.2-.3-.4-.5-.5-.7l-.6.9s.3.3.5.3.3-.2.6-.5zM40.7 6.9c.3-.2.5-.4.7-.5-.3-.2-.6-.4-.9-.4-.1 0-.3.3-.3.4l.5.5zM76.4 67c-.1-.5-.5-.4-.8-.4-.1 0-.3.1-.3.2.1.2.1.4.3.5.1.1.2 0 .3 0 .2-.2.3-.3.5-.3zm-3.6-.3c.3 0 .6.1.8 0 .1 0 .3-.3.3-.5 0-.1-.2-.3-.3-.3-.1 0-.3 0-.4.1-.1.2-.2.5-.4.7zM45.1 37.6c-.1-.1-.2-.1-.3-.2.2-.4-.1-.5-.3-.6-.1-.1-.4 0-.6 0 .1.2.2.5.3.6.3.1.5.1.9.2zm32.5-4.3c.3-.2.4-.3.5-.4l-.6-.6c-.1.1-.3.3-.3.4 0 .2.2.3.4.6zm-33 .8h-.2c.1.3-.6.5-.1.8.1.1.4 0 .6 0-.1-.2-.2-.5-.3-.8zm34.1.7c-.3-.2-.5-.4-.8-.5-.1 0-.3.1-.4.2.2.2.5.3.7.4h.4c0 .1 0 0 .1-.1zm-6.5 7.6c-.1-.2-.2-.3-.3-.5-.1.1-.2.2-.2.3 0 .2.2.4.2.7.1-.1.2-.3.3-.5zM48.4 74.8c.4.2.7.4 1 .5 0-.1.1-.2.1-.3-.2-.3-.5-.4-1.1-.2zm14.1-22.3h-.2c.1.4-.4.8.2 1.1v-1.1z"/><path fill-rule="evenodd" clip-rule="evenodd" fill="#BCD57C" d="M10.9 70.2c-.2.5-.5.9-1.1 1.1-.2.1-.4.3-.6.5-.3.2-.6.4-.8.6-.1.1-.2.2-.2.3-.1.9-.4 1.6-1 2.3-.5.6-1 1.2-1.7 1.6-.3.2-.5.4-.6.6-.3.5-.7.6-1.2.5.1-.5.1-1 .2-1.5.1-.3.2-.5.3-.8.1-.1.1-.3.1-.4.3-.8.5-1.7 1.2-2.4.4-.4.6-1.1.9-1.6.3-.6.8-1.1 1.1-1.6.2-.5.9-.8.4-1.5-.1-.2.3-.9.6-1.3.3-.3.5-.6.4-1 0-.2.2-.6.4-.7.6-.2.7-.8 1-1.2.4-.6.7-1.3.9-2 .1-.3.1-.7.1-1 0-.1.1-.3.1-.3.9.2.7-.6.9-1 .1-.2.3-.7-.2-.9 0 0 0-.3.1-.4.4-.7.9-1.4 1.3-2.1.1-.1.2-.5.5-.2 0 0 .3-.2.4-.3.2-.2.4-.4.5-.6.1-.2-.1-.4-.1-.6 0-.2.1-.5.1-.7.1-.5.1-1.1.3-1.6.1-.2.3-.5.5-.5.4-.1.5-.4.7-.7.2-.4.5-.9.8-1.3l1.2-1.2 2.1-1.8c.5-.4.9-.8 1.4-1.2.2-.2.4-.3.6-.4-.3-.1-.1-.2 0-.3.1-.1.3-.2.4-.4.2-.5.8-.6 1.2-.9.3-.4.7-.8.9-1.2.3-.5.6-1 1-1.5.5-.6.8-1.3 1.2-2 .1-.1.1-.2.2-.2.5-.1.8-.5.9-1 .1-.7.2-1.3.3-2h-.2c-.2-.1-.4-.1-.6-.2.2-.1.4-.2.6-.2h.9c.2-.1.5-.3.5-.4 0-.2-.2-.5-.3-.8-.1-.2-.2-.3-.3-.5 0 0 .2-.2.3-.2.2-.1.6 0 .5-.4-.1-.1-.5-.3-.6-.2-.4.2-.5 0-.4-.3.1-.8-.6-1-.9-1.5-.2-.4-.6-.7-.9-1.1-.7-.9-1.5-1.5-2.4-2.2-.1-.1-.3-.1-.5-.2s-.6-.1-.4-.6c.1-.1-.3-.6-.5-.7-.8-.4-1.7-.8-2.5-1.2-.8-.3-1.6-.9-1.7-1.7-.1-.6-.5-.8-.6-1.3-.1-.5-.4-.5-.7-.6-.9-.5-1.7-1-2.2-1.9-.3-.7-.9-1.3-1.3-1.9-.1-.1 0-.2-.1-.3.1 0 .2.1.2.1 1-.2 1.9.4 2.8.6.3.1.6.5.9.7.6.4 1.2.8 1.7 1.3.5.4.9.9 1.3 1.3.3.3.6.5.8.7h.1c1-.6 1.4.5 2 .8.6.4 1.1 1 1.6 1.5.8.7 1.6 1.4 2.5 2 .4.2.8.5 1.2.7.1 0 .2.1.2.1-.1 1 .6.7 1.1.7h.4c-.4.5-.2.8.2 1.1.3.3.5.7.7 1.1.1.1.1.3.2.3.3 0 .5-.1.8-.1.2 0 .5-.1.7-.2-.1.2-.1.4-.2.6-.3.5-.3.8.2 1.1.2.1.6-.1.9-.2.1 0 .2-.2.4-.3l-.3-.3c-.3-.2-.3-.3 0-.6.5-.4 1.1-.7 1.7-.9.1 0 .3-.4.3-.6.2-1 .9-1.6 1.5-2.2.5-.5 1-1.5.4-2.3h.5c.3 0 .5 0 .4-.4-.1-.2 0-.4.4-.5.5-.1.4-.9 0-1.4-.3-.3-.7-.5-.9-.8-.2-.3-.6-.5-.5-1 .1-.3 0-.6-.5-.3-.6.3-1.2.5-1.9.7H36l.1.1c.3-.4-.1-.4-.5-.3-.3.1-.6.4-.9.5-.7.3-1.5.6-2.3.9-.3.1-.6.1-.8.3-.4.4-.7.1-1-.2-.6-.7-1.5-.7-2.2-1-.1 0-.3-.1-.3-.2 0-.2 0-.3.1-.5-.2 0-.5 0-.7.1-.1 0-.3.2-.4.1-.6-.1-.9.1-.8.8-.3-.4-.1-.8-.1-1.2 0-.2.1-.4 0-.5-.1-.1-.3-.1-.5-.1h-.4c0-.1.1-.2.1-.3.1-.6.2-1.1.3-1.7.1-.5.3-1 .4-1.6h-.6c.1-.2.1-.4.2-.5.2-.4.4-.7-.1-1 0 0 .1-.3.1-.5.1-.2.2-.5-.2-.5-.1 0-.3-.1-.4-.2-.3-.7-.7-.3-1.2-.3h-2v-.2c.2 0 .4 0 .7-.1.3 0 .6.1.7-.4 0-.2.5-.3.8-.3.5 0 .8-.4.9-.7.3-.8 1.1-.9 1.7-1.1.5-.1.5-.1.1-.6.7 0 1.4-.1 2.1 0 .8.2 1.6.6 2.2 1.3.3.3.5.7.8.9.2.1.7-.1.8-.3.2-.3.4-.2.7-.2.2 0 .5 0 .7-.1.5-.2.7.4 1.1.5-.1.3-.1.8-.3.9-.2.1-.7-.1-.9-.2-.2-.1-.2-.5-.3-.8-.3.6-.5 1.1-.7 1.7-.1.1-.2.3-.3.2-.1-.1-.3-.2-.4-.3-.1-.6-.9-.9-1.4-.6-.1.1-.3.1-.4.2-.1 0-.2.1-.2.2s.1.2.1.2c.8 0 1 .7 1.5 1.1.5.4.9.5 1.5.3.2-.1.6 0 .8 0 .4-.1.6.1.7.5 0 0 .2.1.2 0 .1-.1.2-.2.2-.3.1-.1.1-.3.1-.5 1.2.2 1.1.2 1.2-1.1 0-.4-.1-.6-.3-.8-.2-.3-.6-.4-.2-.8-.1-.1-.2-.2-.3-.2-.1-.1-.3-.1-.5-.1-.5-.1-.6-.4-.5-.9.1-.2.1-.4-.3-.5-.6.1-.8-.4-.5-1 .1-.2.5-.2.8-.2H36c.7 0 1 .7 1.4 1.1.1.1.3.2.5.3.3.1.7.2.8.4.3.4.4 1 .6 1.5.3.6.5 1.2.8 1.9 0 .1.2.2.1.2-.2.6.2.9.8 1.2-.9 0-.6.6-.8 1-.3.8.8.4.7 1h-.3c-.2-.2-.4-.3-.5 0-.1.2-.1.7 0 .7 1 .3.2.9 0 1.1-.2.4-.1.6.1.8.1.1.4.1.5 0 .2-.3.2-.6.4-.8.1-.1.3-.2.4-.1.4.1.7.5.8-.2 0 0 .1-.1.2-.1.5.3.8-.1 1.1-.4.2-.2.3-.5.5-.7h.1c0-.8.6-.3 1-.6-.1-.1-.2-.4-.3-.4-.9-.4-1.1-1.2-1.5-2-.3-.7-.5-1.3-.7-2-.1-.5-.2-1-.3-1.4l-.3-1.2v-.3c.1 0 .3-.1.3 0 .2.2.4.3.6.5 1.3 1.2 2.5 2.6 3.5 4.1.3.4.5.9.9 1.5.1-.5.1-1 .6-1.1 0 0 .1-.4 0-.6 0-.1-.3-.2-.5-.4h1.3c1.2 0 1.5-.3 1.8-1.5.1-.3.3-.6.4-.9 0 0 .2-.1.2 0 .1 0 .1.1.1.2.1.9.3 1.9.2 2.8-.2 1-.7 1.9-1.1 2.8-.2.5-.5 1.1-.5 1.7 0 .3.4.7.7 1l1.2 1.5c.7.9 1.3 1.7 2 2.6.5.6.9 1.2 1.3 1.8.2.2.4.5.6.7.5.4 1 .7 1.5 1.1h.1c-.2 1 .8.8 1.2 1.1.3.2.7.2 1 .5-.2 0-.4 0-.5.1-.1 0-.2.1-.4.1.1.1.1.3.2.4.4.5.8 1 1.2 1.6.1.1.1.2.1.3.1.5.4.6.8.3.2-.1.5.1.7.1.4.1.1.4 0 .5-.1.3-.3.7-.2.8.3.4.5 1.1 1.2 1 .3 0 .5 0 .8-.1.1 0 .3-.2.3-.4 0-.3 0-.5-.1-.8h-.3c-.1 0-.3.1-.3.1-.1-.2-.1-.3-.2-.5.1 0 .3-.1.4-.1.7.1 1.3 0 1.8-.3.8-.5 1.7-.9 2.5-1.4.1 0 .1-.4 0-.4-.5-.1-.4-.4-.1-.6.3-.3.7-.6 1.1-.7.4-.1.5-.3.5-.6 0-.7.2-1.3.7-1.9.6-.7.6-.9.1-1.8 0-.1.1-.4.1-.4.5-.2.6-.3.3-.8l.6-.3c-.2-.3-.3-.6-.6-.8-.3-.3-.8-.4-1.2-.7-.8-.5-1-.8-.6-1.8.2.2.5.4.7.6.1.1.3.2.4.3.1-.2.3-.4.3-.5-.1-.5 0-.7.5-.5.4.1.4-.2.4-.4.6.1 1.1.1 1.4-.6.2-.4-.2-.6-.1-1h.8c.2 0 .4-.2.7-.3-.1-.1-.3-.2-.4-.4l-.2-.2c.8-.3.9-.5.8-1.1.2.1.4.2.6.2.2.1.4.1.6.2.1-.3.4-.7.2-1-.1-.2-.6-.3-1-.4.6-.1 1.1-.3 1.7-.3.9-.1 1.1-.2 1.1-1.1 0-.7 0-.7.4-1.1.3.6.7 1.1.9 1.7.2.7.3 1.4.2 2.1-.1 1.6-.2 3.1-.5 4.7-.1.9-.5 1.7-.8 2.5-.4 1.3-.8 2.5-1.3 3.8-.2.5-.5.9-.7 1.3-.4.9-.3 1.8.3 2.6.1.1.1.3 0 .5-.2.5-.5 1.1-.8 1.6-.2.2-.1.9-.8.6-.1-.1-.3.1-.5.1 0 .1.1.3.1.4.5 1 .3 1.9 0 2.9-.1.2-.1.5-.1.7-.7-.2-.5.5-.7.9-.2.5-.3 1.1-.3 1.6 0 .3.2.6.3 1.1-.6-.4-.8-.4-.8.3 0 .2-.3.4-.5.1-.6-.5-1-.5-1.6.2-.1-.2-.2-.3-.3-.5 0-.1-.2-.2-.2-.1l-.2.2c0 .3.1.7.2 1 .1.2.2.3.4.5-.3.1-.6.2-.8.3-.1.1-.3.4-.2.5.4.9.9 1.7 1.7 2.3.6.5 1.1 1.2 1.6 1.7.6.6 1.3 1.1 2.2 1.4-.2 0-.3 0-.5.1h-.3c0 .1 0 .3.1.3.4.2.8.5 1.3.6.5.1 1 .1 1.3.6 0 .1.2.1.3.3v-.7c0-.1.1-.3.2-.4.1.1.3.3.3.4v1.3c0 .7.5 1.2 1.2 1.1.2 0 .5.1.2-.3 0 0 .2-.3.3-.4.1.1.4.2.4.4 0 .5-.1.9 0 1.4.1.7.4 1.4.6 2.1.2.7.6 1.4.9 2.1.1.3.4.5.5.6.2-.2.4-.3.5-.5.2.2.4.4.5.6.2.4.4.8.5 1.2.1.6.4.8.9 1 1 .3 1.5.9 2 1.8.4.6 1 1.1 1.7 1.3.3.1.6 0 1-.1.2.3-.4 1.5.8 1 0 .3 0 .7.1.8.4.3 1 .2 1.4-.1.6-.5 1.1-1 2-1 .5 0 .9.2 1.2.5.1.1 0 .5-.1.5-.3.2-.7.2-1.1.4l1.2.9c.1.1.1.4 0 .6 0 .2-.2.3-.3.4.2 0 .4.1.6.1h.2v.1c-.7.9-.5.9.1 1.8.1.2.3.4.5.6 0 0 .1.1.2.1.5-.4.4 0 .3.3 0 .4-.1.8 0 1.3 0 .4.2.6.6.3.5-.3.7-.1.7.4 0 .4 0 .6.5.7.3 0 .3.5-.2.8-.2.1-.4.2-.5.3.2.3.4.5.7.8.1.1.2.3.4.3.1 0 .3-.2.4-.3.1-.1.2-.1.3-.1 0 .2.1.3.1.5-.1.6-.3 1.2-.4 1.9-.1.9-.1.9-1.1.9h-.8c-.4 0-.7-.1-.9-.4-.5-.6-1.1-1.1-1.7-1.6L91.1 75c-1.5-1.2-2.9-2.3-4.3-3.5-.5-.4-1.1-.8-1.6-1.3-.6-.5-1.2-1-1.7-1.6-.4-.4-.8-.8-1.1-1.3-.5-.6-1.1-.9-1.9-1.2-.7-.3-1.3-.2-1.9-.1-.1 0-.3-.1-.3-.2-.3-1-1.3-1.4-2-1.9-.6-.4-.5-.7-.3-1.1.2-.4 0-.4-.3-.4h-1c-.2 0-.5-.2-.7-.3 0 .1-.1-.1-.2-.1-.9.1-1.3-.8-2.1-1-.3-.1-.6-.2-.9-.4.6-.5.1-.7-.3-1-.8-.5-1.5-1-2.2-1.4-.4-.2-.9-.4-1.4-.5.3-.3.2-.6-.1-.8-.2-.1-.3-.3-.4-.5.2-.1.5-.2.7-.4h.3c-.5-.4 0-1.3-.8-1.4-.2.2-.4.3-.5.4 0-.1-.2-.2-.1-.3.1-.1.2-.3.3-.3h1c-.1-.2-.2-.5-.3-.5-.4-.1-.9 0-1-.6-.1 0-.2 0-.3.1-.1.1-.2.3-.4.5-.3-.8-.5-1.5-.8-2.3-.1-.3-.2-.5-.3-.8-.1-.1-.3-.2-.3-.2-.3.2-.5.4-.8.5-.3.1-.7.1-1 .1-.2.1-.5.2-.7.3v.2c-.2-.1-.3-.3-.5-.4 0 .1-.1.1-.1.1 0 .3-.1.5-.1.8-.1-.2-.1-.5-.2-.7 0-.1-.1-.2-.2-.2s-.3.1-.3.2c0 .5-.4.5-.6.7-.1.1-.1.4-.2.6 0 .1.1.2.1.3-.1 0-.3 0-.4-.1-.3-.1-.6-.3-.9-.5 0 .1-.1.1-.1.2.3.3.5.6.8.9.1.1.1.2.1.3h-.3c-.6-.3-.8-.3-1.1.4-.4.9-.7 1.9-1.2 2.8-.5.9-.8 1.9-.7 3 0 .2.2.4.2.6-.9 0-.9 0-1 .8-.1.7-.1 1.4-.2 2.1-.1.6-.1 1.3-.3 1.9-.1.3-.3.8-.9.7-.1 0-.3.2-.4.3-.2.2-.2.5-.4.6-.2.3-.3.5-.2.9.1.5-.1 1.1-.3 1.7-.2.5-.5 1-.8 1.4-.3.4-.7.7-1 1.1-.1.1-.2.3-.3.5l-.3.3c-.1-.1-.2-.2-.2-.3-.1-1.2-.5-2.4-.1-3.6.3-.7.3-1.5.5-2.2.1-.6.3-1.2.5-1.8.1-.2.2-.4.4-.6.4-.5.3-.8-.3-1 .1-.1.3-.2.3-.3.3-.9.5-1.9.7-2.8.3-1 .7-2 .9-3 .2-.7.1-1.3.2-2 0-.1.1-.2.1-.4 0-.3.1-.7.1-1-.1-.4-.3-.8-.4-1.2.1 0 .1-.1.2-.1.1.3.3.5.5.9.1-.4.2-.7.3-1 .1-.3.4-.6.6-.8.2-.3.4-.6-.1-.8-.1 0-.2-.1-.3-.2-.1-.2-.2-.4-.2-.7 0-.1.3-.1.5-.2.3-.1.7 0 .7-.1.2-.3.2-.8.3-1.2 0 0-.1-.1-.2-.1-.1-.1-.3-.3-.3-.4.4-1.1.9-2.1 1.7-2.9.2-.2.6-.4.8-.7.3-.3.4-.7-.1-.9-.3-.2-.5-.5-.7-.7h.1l.9.3c.2.1.5.4.5.4.3-.2.6-.5.8-.8.2-.2.3-.5.5-.7.1-.2.2-.3 0-.5-.1-.1-.2-.3-.2-.4.1-.1.3-.3.5-.3.2-.1.5-.1.7-.1v-.2c-.5 0-.9 0-1.3-.1 0-.2.2-.6.1-.7-.5-.5-.8.1-1.2.3-.2-.7.8-1.6-.5-2.2.3 0 .4-.1.6-.1.4 0 .5-.2.2-.5.5-.2.5-.2.2-.5-.2-.3-.5-.7-.5-1.1-.1-.7-.5-.9-1.2-.9.5-.3.8-.4 1.2-.6.1-.1.2-.2.2-.3-.1-.1-.2-.2-.3-.2-.2 0-.5.1-.7.1-.3 0-.7.1-1 .1v-.2c.2-.1.3-.3.5-.3.7 0 .5-.3.3-.7-.9-1.3-1.7-2.7-2.6-3.9-.9-1.2-2-2.3-3.1-3.4-.1-.1-.3 0-.5-.1.2-.3.4-.7 0-1-.6-.6-1.2-1.3-1.8-1.9-.3-.4-.5-.2-.7.1 0 .1-.1.2-.2.3-.3.3-.4 1-.1 1.3.2.2.5.5.8.7v-.4c0-.1-.2-.2-.2-.3 0-.1 0-.2.1-.5.5.5.9.9 1.2 1.3.2.4.5.4.8.4-.1.4-.3.8-.2 1.2.1.4.3.8.7 1.1.5.5.9 1.2.8 1.8-.5-.4-1.1-.8-1.6-1.3-.6-.7-1.1-1.5-1.6-2.2l-.9-1.2c-.2-.2-.3-.4-.5-.6-.3.4-.6.8-.8 1.3h-.1l.1.1c-.4.6-.6 1.3-1.1 1.8-.9.9-1.6 2-1.8 3.3-.1.3 0 .7.2 1 .2.4.1.6-.1.9-.4.6-1 1.1-1.2 1.8-.3.7-.7.5-1 .3-.5-.2-.4.2-.4.3 0 .4.1.9.1 1.3s-.1.8-.2 1.2c-.1.4-.4.8-.6 1.2-.1.1-.1.3-.2.4-.5 1 0 1.9.4 2.7.4.8.8 1.7 1.2 2.5.1.2.2.4.4.5.2.2.4.3 0 .5-.1 0-.2.3-.1.4.3.3.5.6.9.7.4.2.9.3.9.9 0 .1.1.2.2.2s.2-.1.2-.2V47c.1-.2.1-.3.2-.4h.2c0 .2 0 .4-.1.6-.2.5-.4 1-.5 1.5 0 .2.2.4.4.6 0 0 .3-.1.4-.2.1-.1.3-.2.4-.2.1 0 .2.1.2.1 0 .2-.1.5-.1.5-.6.1-.5.7-.8 1 0 .1.1.3.2.4.1.2.2.3.2.5 0 0-.2.2-.3.2-.9 0-1.2.6-1.9 1.2.4 0 .6 0 .8.1.2.1.4.2.5.4 0 .1-.1.3-.2.5-.3.3-.6.6-.2 1.1.3.4.6.9.5 1.5 0 .3 0 .7.5.9.2.1.2.7.3 1.1.1.6.1 1.3.2 1.9 0 .3.3.1.4.1.3.3 1 .4.5 1 0 .1 0 .2-.1.2.2 0 .3.1.5.1v.1c-.4 0-.5.1-.2.5s.6.6 1.1.5c.5-.1.9 0 1.4-.1.5-.1.7.3 1 .6.1.1.1.4 0 .5-.1.1-.3.1-.5.1s-.3-.1-.5-.1c-.1 0-.3.1-.5.1 0 .1 0 .2.1.3.1.2.3.3.3.5s.3.6-.2.6-.6.2-.3.6c-.7.2-.9.7-.7 1.6.1.4 0 .6-.3.9-.1.1-.2.2-.2.3-.1.1-.1.3-.2.4.1 0 .2.1.4.1s.3 0 .6.1c-.6.3-.6.7-.3 1.3-.3 0-.6 0-.9.1-.1 0-.1.2-.2.3v.5c0 .1.1.3.2.4.1.1.3.1.5.1.1 0 .1-.1.2-.1 0 .1 0 .2-.1.2-.3.2-.6.4-1 .6-.5.3-.6.8-.4 1.4.2.4.2.7.3 1.1 0 .1-.1.2-.2.3 0-.1 0-.2-.1-.2-.3-.2-.6-.6-1-.7-.8-.3-1-1.1-1.3-1.8-.4-.8-.6-1.7-1-2.4-.5-.9-.8-1.8-1.1-2.7-.3-.8-.5-1.5-.7-2.3-.1-.2-.1-.5-.2-.7 0-.4 0-.7-.3-1-.1-.1 0-.5-.1-.8 0-.3 0-.5-.1-.8-.4-.1-.5-.7-.7-1.1-.4-.6-.6-1.5-1.6-1.5-.1 0-.3-.4-.4-.6-.2-.4-.3-.9-.5-1.3-.2-.3-.1-.5.2-.7.4-.2.4-.4 0-.7-.5-.3-1.2-.7-1-1.6 0-.2-.2-.4-.3-.6-.5-.6-1.1-1.2-1.7-1.8-.1-.1-.2-.4-.4 0-.1.2-.4.2-.6.3-.1.1-.3.3-.3.4.2.5-.2.7-.6.8-.5.2-.9.4-.9 1.1-.1-.4-.1-.7-.2-1.1-.2.3-.5.5-.2.9l-.1.3c-.3.1-.6.2-.9.2-.1 0-.2-.3-.2-.4 0-.1.1-.2.2-.3.1-.1.2-.1.3-.2-.1-.1-.3-.2-.4-.2-.1-.1-.3-.1-.3-.1-.1-.6-.6-.7-1-1-.2-.2-.4-.4-.4-.7-.1-.8-.2-.9-1-.6-.1 0-.2.1-.4.1.1.1.2.2.2.3 0 .1.1.4 0 .4-.4.2-.9.4-1.4.6-.1 0-.2-.1-.2-.1-.3 0-.8.1-.8.1 0 .4.1.9.1 1.3 0 .1.1.2.2.3h-.7c-.6.4-1.1.3-1.7 0-.1 0-.3 0-.4.1-.3.3-.5.6-.8.9-.3.3-.5.6-.4 1 0 .1-.1.2-.1.2 0-.1-.1-.1-.1-.2l-.4-.4c-.2-.1-.4 0-.6 0 .1.3.2.6.3.8-.3.2-.6.3-.8.6-.5.5-.9 1.1-1.3 1.6-.1.2-.2.5-.4.6-.1.1.1.6-.4.4 0 .2 0 .5.1.7.3.4.4.9.4 1.4 0 .3-.2.7.4.8 0 0 .1.6 0 .8-.6 1.2-1.2 2.3-1.9 3.4-.2.5-.5.9-.7 1.4-.1.1-.1.2-.2.3-.1-.1-.2-.2-.2-.3l.3-1.2c0-.2 0-.3.1-.5-.2.1-.3.2-.5.3-.4-.4.1-.8.3-1.2.2-.4.2-.6-.3-.6-.9-.1-1.3.3-1.3 1.2 0 .2-.1.4-.2.6-.2.5-.3 1.1-.5 1.5-.7.6-1 1-1.3 1.4 0 0-.1 0 0 0-.1 0-.1 0 0 0zm21.5-20.5c.6.1.5-.4.6-.6.1-.1 0-.2.1-.4-.2 0-.3 0-.5.1-.2 0-.3 0-.5.1-.2 0-.4 0-.5.1-.1.2-.2.5.3.4l.2.2c.1-.1.2 0 .3.1zm1.4-1.1v-.2c-.3-.2-.5-.5-.8-.7-.2-.1-.5 0-.7 0 .1.2.1.4.2.5.4.2.9.3 1.3.4zm-1.5-2.3c-.2.2-.5.3-.6.5-.1.2.1.5.1.8l.2.1c.1-.4.3-.8.4-1.2.1-.1 0-.2-.1-.2z"/><path fill-rule="evenodd" clip-rule="evenodd" fill="#BCD57C" d="M60.8 20c-.1-.1-.2-.1-.2-.2-.2-.7-.3-1.4-.5-2.2 0-.1-.2-.2-.3-.2l-.4-.2c.1-.6-.5-.6-.8-.9l-.1-.1c-.3.8-1-.2-1.4.4-.4.6-.9 1-1.3 1.6-.1.1-.2.2-.3.2h-.4c0-.1 0-.3.1-.4.1-.2.2-.4.4-.5.3-.3.5-.5-.1-.6l-.1-.2c.3-.3-.1-.8.4-1 .1-.1.1-.5 0-.7-.2-.3-.1-.5.1-.8.1-.1.1-.2.2-.3h-.4c-.1 0-.3-.1-.3-.2 0-.2 0-.5.1-.7 0-.1.1-.1.2-.1s.3-.1.4-.1c.1 0 .2-.2.2-.2-.1 0-.2-.1-.3-.1h-.6v-.1c.4-.2.9-.5 1.3-.5.5 0 .5-.3.4-.6v-.5c.6.4 1.2.7 1.8 1 .1.1.4.1.5.1.4-.2.8-.5 1.1-.9.3-.4.5-.9.8-1.3 0 0 0 .2.1.3 0 .1.1.1.2.1v-.2c.1-.5.4-.9.2-1.4 0 0 .2-.1.3-.1.6.3.9.2 1.2-.5.2-.5 1.4-1 1.9-.8.5.2 1 .7 1.7.2.2-.1.7.2.9.5 1 .9 1.7 2 2.4 3.2.2.3.5.6.3 1.1l.3.3c.4.3.6.5.6 1-.2-.1-.3-.2-.5-.4-.2.6-.5 1.2-.6 1.8 0 .2.3.5.4.7.1.2.2.3.2.5-.2 0-.4.2-.5.1-.5-.1-.5.1-.7.5-.1.4.3.3.5.4l-.6.9c-.5.6-1.1 1.1-2 1.1-.4 0-.9.2-1.3.2s-.8 0-1.1-.1c-.7-.3-1.3-.1-2 .1h-.1c-.5.2-.5.2-.6-.2-.1.3-.3.6-.4.9-.1.2 0 .4-.1.6v.3c-.1-.1-.3-.1-.3-.2-.1-.4-.2-.7-.3-1.2l-.6.6zm1.6-11.3c-.1.3-.1.6-.3.8-.6.8-.4 1.4.4 1.9.1.1.3.2.3.3-.2.4.1.5.3.6.5.4 1.3.4 1.7 1 0 .1.3.1.4.1 0-.1-.1-.3-.1-.4v-.2c.1-.1.3-.1.4-.1.1 0 .3.2.4.2.3-.1.7.4.8-.1.1-.4.1-.9 0-1.3-.1-.3-.2-.7-.7-.7-.2 0-.4-.2-.7-.4.3-.5-.1-.3-.3-.3h-1c-.1 0-.3-.1-.3-.1 0-.6-.2-.5-.5-.2 0 0-.3-.1-.4-.2 0-.4-.2-.7-.4-.9zM21.9 26c.6-.1.8.5 1.3.7.2.1.4.1.7.2-.3.9.5 1.5 1 2.2.2.3.1.4 0 .6-.1.1-.4 0-.5-.1-.7-.6-1.3-1.3-2-1.8-.6-.4-1.2-.8-1.9-1.1-.1-.1-.2-.1-.4-.3.2 0 .3-.1.5-.1.4-.1.7 0 .9.4.1.3.3.3.5.1 0 0-.1-.2-.1-.3V26zM55.8 60.8c.1-.1.2-.2.3-.2 1 .1 1.1-.8 1.3-1.4l.3-.6.2-.1.2.2c0 .8 0 1.6-.4 2.3-.3.7-.4 1.5-.6 2.3 0 .2-.1.3-.2.5 0 .1-.2.1-.3.2 0-.1-.1-.2-.1-.2v-.6c0-.2-.1-.3-.1-.5-.2 0-.4.1-.7.1.1-.4.2-.8.2-1.2 0-.2-.1-.4-.1-.6v-.2zm.5 1.5v.1c.1 0 .1-.1 0-.1zM48.9 76.4c.1.3.3.5.4.8.1.1.1.3.1.4-.2 0-.3 0-.5-.1-.4-.2-.8-.5-1.2-.7-.4-.1-.4-.4-.3-.7 0-.1.1-.2.2-.3.1.1.2.1.2.2.1.1.1.2.1.3.1.2.3.4.4.4.2.1.4-.1.6-.3zM38.7 2c0 .2.1.6-.4.2-.1-.1-.2-.1-.3 0-.3 0-.6 0-.6-.4.1-.3.3-.7.6-.8.3-.1.6.2.8.5 0 .1-.1.2-.1.5zM15.3 70.7c-.2-.1-.4-.1-.5-.2-.1 0-.2-.2-.1-.3.2-.3.4-.6.7-.9.1-.1.3 0 .5 0v.4c-.4.3-.1.9-.6 1zM54 36.9c.2.1.3.2.5.3.5.4.9.8 1.3 1.2.1.1.1.4.2.6-.1-.1-.3-.1-.4-.2l-1.7-1.7c0-.2 0-.2.1-.2zM39.7 4.4c-.2-.1-.5-.2-.7-.3-.1-.1-.2-.2-.2-.3.1 0 .2-.1.4-.1.2-.1.3-.2.5-.2.7-.2 1 0 1.5.7-.3-.2-.5-.3-.7-.4-.2-.1-.5-.1-.7-.1-.1.2-.1.4-.1.7zM10.2 13.5c-.3.2-.5.4-.7.4-.2.1-.4.1-.8.1.2-.4.3-.7.5-1 .3.1.6.3 1 .5zM19.4 27.9c-.4-.2-.7-.4-1-.5l.6-.6c.2.2.5.4.6.7.1 0-.1.2-.2.4zM58.8 64.7c-.3.2-.4.5-.6.5-.1 0-.5-.3-.5-.3l.6-.9c.1.2.2.4.5.7zM11.1 14.1c.3.1.6.3.8.4.1 0 .1.1.2.1-.1.1-.1.1-.2.1h-.8c-.2 0-.5-.1-.7-.1.2-.2.4-.4.5-.6.1.1.1.1.2.1zM40.7 6.9c-.2-.2-.4-.3-.5-.5 0-.1.2-.4.3-.4.3.1.6.2.8.3-.1.2-.3.3-.6.6zM76.4 67c-.2.1-.3.2-.5.2-.1 0-.3.1-.3 0-.1-.1-.2-.3-.3-.5 0 0 .2-.2.3-.2.3.1.7-.1.8.5zM72.8 66.7c.2-.2.3-.5.5-.7.1-.1.3-.2.4-.1.1 0 .3.2.3.3 0 .2-.2.4-.3.5-.3.1-.6 0-.9 0zM45.1 37.6c-.3-.1-.6-.1-.8-.3-.2-.1-.2-.4-.3-.6h.6c.2.1.5.3.3.6 0 .1.1.2.2.3zM77.6 33.3c-.2-.3-.3-.4-.3-.6 0-.1.2-.3.3-.4l.6.6c-.2.1-.4.2-.6.4zM44.6 34.1l.3.9c-.2 0-.5.1-.6 0-.5-.3.2-.5.1-.8.1 0 .2-.1.2-.1zM13.3 15c.3.4-.1.5-.3.7-.1 0-.3-.1-.4-.2.1-.1.1-.4.2-.4.1-.1.3-.1.5-.1zM78.7 34.8c-.1.1-.1.2-.1.2-.1 0-.3.1-.4 0-.3-.1-.5-.3-.7-.4.1-.1.3-.2.4-.2.2.1.5.3.8.4zM72.2 42.4c-.1.2-.2.3-.3.5-.1-.2-.2-.4-.2-.7 0-.1.1-.2.2-.3.1.2.2.3.3.5zM48.4 74.8c.6-.2.9-.1 1.1.2 0 .1 0 .2-.1.3-.3-.1-.6-.3-1-.5zM58 37.6c-.3 0-.7 0-.9-.4v-.3c.1 0 .2.1.2.1.3.2.5.4.7.6zM62.5 52.5v1.1c-.6-.3-.1-.7-.2-1.1h.2z"/><path fill-rule="evenodd" clip-rule="evenodd" fill="#BCD57C" d="M60.9 20c.1.2.2.5.3.7-.1 0-.2 0-.3.1V20c-.1 0 0 0 0 0zM39.8 4.4l.4.4s0 .1-.1.1c-.1-.2-.3-.3-.3-.5-.1 0-.1 0 0 0zM11.1 13.9l.2-.2.1.1c-.1.1-.2.1-.3.1zM56.3 43.2c-.1 0-.1-.1-.2-.1 0 0 0-.1.1-.1 0 0 0 .1.1.2 0-.1 0 0 0 0zM71.2 18.8c-.1 0-.1-.1-.2-.1 0 0 0-.1.1-.1 0 0 .1.1.1.2zM32.3 13.4c.1 0 .1 0 .2.1v.1c-.1-.1-.2-.1-.2-.2-.1 0 0 0 0 0zM24.4 43c-.1 0-.1-.1-.2-.1.1.1.2.1.2.1zM35.2 14.1c0-.1 0-.1 0 0 0-.1 0-.1 0 0 .1-.1.1 0 0 0zM15.3 70.7s.1 0 0 0c.1 0 .1 0 0 0zM11 14.1l.1-.1v.1H11zM32.2 13.5c0-.1 0-.1 0 0 0-.1 0-.1 0 0 .1-.1 0-.1 0 0zM13.3 15zM55.8 60.9h-.1.1zM68.8 19.4s0-.1 0 0c0-.1 0-.1 0 0zM17.5 49.3s-.1 0 0 0zM21.9 26c-.1 0-.1 0 0 0-.1 0-.1 0 0 0-.1 0-.1 0 0 0z"/><path clip-rule="evenodd" fill="none" d="M50.2 25.5c-.4 0-.6-.1-.8-.4-.3-.5-.8-.8-1.2-1.3 0 .2-.1.4-.1.5 0 .1.2.2.2.3v.4c-.3-.2-.5-.5-.8-.7-.3-.3-.2-1 .1-1.3.1-.1.2-.2.2-.3.2-.4.3-.5.7-.1.6.7 1.2 1.3 1.8 1.9.3.4.1.7-.1 1zM32.4 49.7l-.3-.3-.2-.2c-.4.1-.3-.2-.3-.4 0-.1.3-.1.5-.1s.3 0 .5-.1c.2 0 .3 0 .5-.1 0 .1 0 .3-.1.4-.1.4 0 .9-.6.8zM33.8 48.6c-.4-.1-.9-.2-1.3-.3-.1 0-.1-.3-.2-.5.2 0 .5-.1.7 0 .3.2.5.4.8.7v.1zM32.3 46.3c.1.1.2.1.2.1-.1.4-.3.8-.4 1.2 0 0-.2 0-.2-.1-.1-.3-.2-.5-.1-.8 0-.1.3-.2.5-.4zM10.9 70.2c-.1 0-.1 0 0 0-.1 0 0 0 0 0zM36.8 19.9c0-.1 0-.1 0 0 0-.1 0-.1 0 0 .1-.1 0 0 0 0zM46 25.7c0-.1-.1-.1 0 0 0-.1 0-.1 0 0 0-.1 0 0 0 0zM62.4 8.7c.2.3.4.5.6.8.1.1.3.2.4.2.3-.2.6-.3.5.2 0 0 .2.1.3.1h1c.2 0 .6-.1.3.3.2.1.4.4.7.4.5 0 .6.4.7.7.1.4.1.9 0 1.3-.1.5-.5.1-.8.1-.1 0-.2-.2-.4-.2-.1 0-.3 0-.4.1v.2c0 .1 0 .3.1.4-.1 0-.4 0-.4-.1-.4-.7-1.1-.6-1.7-1-.2-.1-.5-.2-.3-.6 0 0-.1-.2-.3-.3-.8-.5-1-1.1-.4-1.9 0-.1 0-.4.1-.7zm1 2.1h-.1.1l-.6.3c.4.1.8.3 1.2.3.2 0 .4 0 .6-.1.2-.2.4-.5.6-.8-.2 0-.5.1-.7 0-.6-.3-.8-.1-1.1.3.1 0 0 0 0 0zM56.3 62.3v0zM11 14.1h0z"/><path fill-rule="evenodd" clip-rule="evenodd" fill="#BCD57C" d="M63.4 10.8s.1 0 0 0c.3-.3.5-.6 1-.3.2.1.5 0 .7 0-.2.3-.3.6-.6.8-.1.1-.4.2-.6.1-.4-.1-.7-.2-1.2-.3.3-.1.5-.2.7-.3z"/><path fill-rule="evenodd" clip-rule="evenodd" fill="#BCD57C" d="M63.4 10.8s-.1 0 0 0c-.1-.1 0 0 0 0z"/></g></g></svg>
