<svg xmlns="http://www.w3.org/2000/svg" width="100" height="100" viewBox="0 0 100 100"><path fill="#BF4385" d="M48.67 22.133c-6.812 0-12.334 5.52-12.334 12.333 0 6.81 5.522 12.33 12.333 12.33 6.81 0 12.332-5.52 12.332-12.33 0-6.812-5.523-12.333-12.333-12.333zm2.964 73.35c1.952-22.255 26.442-42.197 26.442-61.55C78.076 17.98 64.91 5.06 48.67 5.06c-16.244 0-29.41 12.92-29.41 28.874 0 19.352 24.72 39.294 26.563 61.55h5.81zm-2.965-80.94c11.003 0 19.92 8.918 19.92 19.923 0 11.003-8.917 19.92-19.92 19.92-11.005 0-19.922-8.917-19.922-19.92 0-11.004 8.918-19.923 19.92-19.923z"/></svg>