<svg xmlns="http://www.w3.org/2000/svg" width="100" height="100" viewBox="0 0 100 100"><path fill="#BF4385" d="M48.669 22.133c-6.811 0-12.333 5.521-12.333 12.333 0 6.81 5.522 12.331 12.333 12.331 6.81 0 12.333-5.521 12.333-12.331 0-6.812-5.523-12.333-12.333-12.333zm2.965 73.351c1.952-22.256 26.442-42.198 26.442-61.55 0-15.955-13.165-28.875-29.407-28.875-16.243 0-29.408 12.921-29.408 28.875 0 19.352 24.719 39.294 26.562 61.55h5.811zm-2.965-80.941c11.004 0 19.92 8.918 19.92 19.923 0 11.003-8.916 19.92-19.92 19.92-11.004 0-19.921-8.917-19.921-19.92 0-11.004 8.918-19.923 19.921-19.923z"/></svg>
