<svg xmlns="http://www.w3.org/2000/svg" xmlns:xlink="http://www.w3.org/1999/xlink" version="1.1" id="Layer_1" x="0" y="0" width="97.7" height="79.5" viewBox="0 0 97.7 79.5" enable-background="new 0 0 97.7 79.5" xml:space="preserve"><defs><rect id="SVGID_1_" x="-2.2" width="101.4" height="79.5"/></defs><clipPath id="SVGID_2_"><use xlink:href="#SVGID_1_" overflow="visible"/></clipPath><g clip-path="url(#SVGID_2_)"><defs><rect id="SVGID_3_" x="-2.2" width="101.4" height="79.5"/></defs><clipPath id="SVGID_4_"><use xlink:href="#SVGID_3_" overflow="visible"/></clipPath><g clip-path="url(#SVGID_4_)"><path fill="none" d="M50.7 79.5c-16.7 0-33.3 0-50 0 -0.5 0-0.6-0.1-0.6-0.6 0-26 0-52.1 0-78.1 0-0.5 0.1-0.6 0.6-0.6 33.3 0 66.7 0 100 0 0.5 0 0.6 0.1 0.6 0.6 0 26 0 52.1 0 78.1 0 0.5-0.1 0.6-0.6 0.6C84 79.5 67.3 79.5 50.7 79.5zM32.3 13.4c0 0-0.1 0-0.1 0C32.2 13.4 32.2 13.4 32.3 13.4c0 0.1 0.1 0.1 0.2 0.2 0 0 0-0.1 0-0.1C32.4 13.5 32.3 13.4 32.3 13.4zM11.1 13.9c0.1 0 0.2 0 0.3-0.1 0 0-0.1-0.1-0.1-0.1C11.2 13.8 11.2 13.9 11.1 13.9c0 0-0.1 0.1-0.1 0.1 -0.2 0.2-0.4 0.4-0.5 0.6 0.2 0 0.5 0.1 0.7 0.1 0.3 0 0.5 0 0.8 0 0.1 0 0.1-0.1 0.2-0.1 -0.1 0-0.1-0.1-0.2-0.1 -0.3-0.1-0.5-0.3-0.8-0.4C11.1 14 11.1 14 11.1 13.9zM13.3 15c-0.2 0-0.4 0-0.5 0 -0.1 0.1-0.1 0.3-0.2 0.4 0.1 0.1 0.3 0.2 0.4 0.2C13.2 15.6 13.5 15.4 13.3 15 13.3 15 13.3 15 13.3 15 13.3 15 13.3 15 13.3 15 13.3 15 13.3 15 13.3 15zM39.7 4.4c0.1 0.1 0.3 0.3 0.4 0.4 0 0 0.1-0.1 0.1-0.1C40 4.6 39.9 4.5 39.7 4.4c0-0.3 0-0.5 0-0.7 0.2 0 0.5 0 0.7 0.1 0.2 0.1 0.4 0.2 0.7 0.4 -0.5-0.8-0.8-0.9-1.5-0.7 -0.2 0.1-0.3 0.2-0.5 0.2 -0.1 0-0.2 0.1-0.4 0.1C38.9 3.9 38.9 4 39 4.1 39.2 4.2 39.5 4.3 39.7 4.4zM15.3 70.7C15.3 70.7 15.3 70.7 15.3 70.7 15.4 70.7 15.4 70.7 15.3 70.7 15.4 70.7 15.3 70.7 15.3 70.7c0.5-0.1 0.2-0.7 0.5-0.9 0.1 0 0-0.2 0-0.4 -0.2 0-0.4-0.1-0.5 0 -0.3 0.3-0.5 0.6-0.7 0.9 0 0 0.1 0.2 0.1 0.3C15 70.6 15.2 70.6 15.3 70.7zM55.8 60.9c0 0.2 0.1 0.4 0.1 0.6 0 0.4-0.1 0.8-0.2 1.2 0.3-0.1 0.5-0.1 0.7-0.1 0 0.2 0.1 0.3 0.1 0.5 0 0.2 0 0.4 0 0.6 0 0.1 0.1 0.2 0.1 0.2 0.1-0.1 0.2-0.1 0.3-0.2 0.1-0.1 0.1-0.3 0.2-0.5 0.2-0.8 0.3-1.6 0.6-2.3 0.3-0.8 0.4-1.5 0.4-2.3 0-0.1-0.1-0.2-0.2-0.2 0 0-0.2 0-0.2 0.1 -0.1 0.2-0.2 0.4-0.3 0.6 -0.2 0.6-0.3 1.5-1.3 1.4 -0.1 0-0.2 0.1-0.3 0.2 -0.1-0.2-0.2-0.4-0.2-0.6 -0.1-1.1 0.2-2 0.7-3 0.4-0.9 0.8-1.9 1.2-2.8 0.3-0.7 0.4-0.8 1.1-0.4 0.1 0 0.2 0 0.3 0 0-0.1 0-0.2-0.1-0.3 -0.2-0.3-0.5-0.6-0.8-0.9 0-0.1 0.1-0.1 0.1-0.2 0.3 0.2 0.6 0.3 0.9 0.5 0.1 0 0.3 0 0.4 0.1 0-0.1-0.1-0.2-0.1-0.3 0-0.2 0-0.5 0.2-0.6 0.3-0.2 0.6-0.3 0.6-0.7 0-0.1 0.2-0.2 0.3-0.2 0 0 0.2 0.1 0.2 0.2 0.1 0.2 0.1 0.5 0.2 0.7 0-0.3 0.1-0.5 0.1-0.8 0 0 0-0.1 0.1-0.1 0.2 0.1 0.3 0.3 0.5 0.4 0-0.1 0-0.1 0-0.2 0.2-0.1 0.4-0.2 0.7-0.3 0.3-0.1 0.7 0 1-0.1 0.3-0.1 0.6-0.4 0.8-0.5 0.1 0 0.3 0.1 0.3 0.2 0.1 0.2 0.2 0.5 0.3 0.8 0.3 0.7 0.5 1.5 0.8 2.3 0.1-0.2 0.2-0.3 0.4-0.5 0.1-0.1 0.2-0.1 0.3-0.1 0.1 0.6 0.6 0.5 1 0.6 0.1 0 0.2 0.3 0.3 0.5 -0.2 0-0.3 0-0.5 0 -0.2 0-0.4-0.1-0.5 0 -0.1 0-0.3 0.2-0.3 0.3 0 0.1 0.1 0.2 0.1 0.3 0.2-0.1 0.3-0.3 0.5-0.4 0.7 0.1 0.2 1 0.8 1.4 -0.2 0-0.2 0-0.3 0 -0.2 0.1-0.5 0.2-0.7 0.4 0.1 0.2 0.3 0.4 0.4 0.5 0.3 0.3 0.4 0.5 0.1 0.8 0.5 0.2 1 0.3 1.4 0.5 0.8 0.4 1.5 1 2.2 1.4 0.5 0.3 1 0.5 0.3 1 0.3 0.1 0.6 0.3 0.9 0.4 0.8 0.2 1.2 1.1 2.1 1 0.1 0 0.2 0.2 0.3 0.2 0.2 0.1 0.5 0.3 0.7 0.3 0.3 0.1 0.7 0 1 0 0.3 0 0.5 0 0.3 0.4 -0.2 0.4-0.3 0.7 0.3 1.1 0.8 0.5 1.7 0.9 2 1.9 0 0.1 0.2 0.2 0.3 0.2 0.6-0.1 1.2-0.2 1.9 0.1 0.7 0.3 1.4 0.6 1.9 1.2 0.3 0.4 0.7 0.9 1.1 1.3 0.6 0.5 1.2 1 1.7 1.6 0.5 0.4 1 0.8 1.6 1.3 1.4 1.2 2.9 2.4 4.3 3.5 0.7 0.5 1.5 1 2.1 1.5 0.6 0.5 1.2 1 1.7 1.6 0.3 0.3 0.6 0.4 0.9 0.4 0.3 0 0.5 0 0.8 0 1 0 0.9 0 1.1-0.9 0.1-0.6 0.3-1.2 0.4-1.9 0-0.1-0.1-0.3-0.1-0.5 -0.1 0-0.2 0.1-0.3 0.1 -0.1 0.1-0.3 0.3-0.4 0.3 -0.1 0-0.2-0.2-0.4-0.3 -0.2-0.3-0.4-0.5-0.7-0.8 0.2-0.1 0.4-0.2 0.5-0.3 0.4-0.3 0.5-0.7 0.2-0.8 -0.5-0.1-0.5-0.3-0.5-0.7 0-0.5-0.3-0.7-0.7-0.4 -0.4 0.2-0.6 0.1-0.6-0.3 0-0.4 0-0.8 0-1.3 0-0.3 0.2-0.7-0.3-0.3 0 0-0.1 0-0.2-0.1 -0.2-0.2-0.3-0.4-0.5-0.6 -0.5-0.9-0.8-0.9-0.1-1.8 0 0 0-0.1 0-0.1 -0.1 0-0.2 0-0.2 0 -0.2 0-0.4-0.1-0.6-0.1 0.1-0.1 0.3-0.3 0.3-0.4 0.1-0.2 0.1-0.5 0-0.6 -0.4-0.3-0.8-0.6-1.2-0.9 0.4-0.1 0.8-0.2 1.1-0.4 0.1-0.1 0.2-0.5 0.1-0.5 -0.3-0.3-0.6-0.5-1.2-0.5 -0.9 0-1.4 0.5-2 1 -0.4 0.3-1 0.4-1.4 0.1 -0.1-0.1-0.1-0.5-0.1-0.8 -1.2 0.4-0.6-0.7-0.8-1 -0.4 0-0.8 0.2-1 0.1 -0.7-0.2-1.3-0.7-1.7-1.3 -0.5-0.8-1-1.5-2-1.8 -0.5-0.1-0.8-0.4-0.9-1 -0.1-0.4-0.3-0.8-0.5-1.2 -0.1-0.2-0.4-0.4-0.5-0.6 -0.2 0.2-0.3 0.3-0.5 0.5 -0.1-0.2-0.4-0.4-0.5-0.6 -0.3-0.7-0.7-1.4-0.9-2.1 -0.2-0.7-0.5-1.3-0.6-2.1 -0.1-0.5 0.1-0.9 0-1.4 0-0.1-0.2-0.3-0.4-0.4 -0.1 0.1-0.3 0.4-0.3 0.4 0.3 0.4-0.1 0.3-0.2 0.3 -0.7 0.1-1.1-0.4-1.2-1.1 0-0.4 0-0.8 0-1.3 0-0.1-0.2-0.3-0.3-0.4 -0.1 0.1-0.2 0.3-0.2 0.4 0 0.2 0 0.4 0 0.7 -0.2-0.1-0.3-0.2-0.3-0.3 -0.2-0.6-0.7-0.6-1.3-0.6 -0.5-0.1-0.9-0.4-1.3-0.6 -0.1 0 0-0.2-0.1-0.3 0.1 0 0.2 0 0.3 0 0.2 0 0.3 0 0.5-0.1 -0.9-0.3-1.6-0.7-2.2-1.4 -0.5-0.6-1-1.2-1.6-1.7 -0.8-0.6-1.3-1.4-1.7-2.3 -0.1-0.1 0.1-0.4 0.2-0.5 0.3-0.2 0.6-0.2 0.8-0.3 -0.2-0.2-0.4-0.3-0.4-0.5 -0.1-0.3-0.2-0.6-0.2-1 0-0.1 0.1-0.2 0.2-0.2 0 0 0.2 0.1 0.2 0.1 0.1 0.1 0.2 0.3 0.3 0.5 0.6-0.7 1-0.8 1.6-0.2 0.3 0.3 0.5 0.1 0.5-0.1 0-0.6 0.3-0.6 0.8-0.3 -0.1-0.5-0.3-0.8-0.3-1.1 0-0.6 0.1-1.1 0.3-1.6 0.1-0.4 0-1.1 0.7-0.9 0-0.3 0.1-0.5 0.1-0.7 0.3-1 0.5-1.9 0-2.9 -0.1-0.1-0.1-0.3-0.1-0.4 0.2 0 0.4-0.1 0.5-0.1 0.6 0.3 0.6-0.3 0.8-0.6 0.3-0.5 0.5-1.1 0.8-1.6 0.1-0.1 0.1-0.4 0-0.5 -0.6-0.8-0.7-1.7-0.3-2.6 0.2-0.5 0.5-0.9 0.7-1.3 0.5-1.3 0.9-2.5 1.3-3.8 0.3-0.8 0.7-1.7 0.8-2.5 0.2-1.5 0.4-3.1 0.5-4.7 0-0.7-0.1-1.5-0.2-2.1 -0.2-0.6-0.6-1.1-0.9-1.7 -0.4 0.4-0.4 0.4-0.4 1.1 0 1-0.1 1.1-1.1 1.1 -0.6 0-1.1 0.2-1.7 0.3 0.4 0.2 0.9 0.2 1 0.4 0.1 0.2-0.2 0.7-0.2 1 -0.3-0.1-0.5-0.1-0.6-0.2 -0.2-0.1-0.4-0.2-0.6-0.2 0.1 0.6 0 0.8-0.8 1.1 0.1 0.1 0.2 0.1 0.2 0.2 0.1 0.1 0.3 0.2 0.4 0.4 -0.2 0.1-0.4 0.3-0.7 0.3 -0.3 0.1-0.6 0-0.8 0 -0.1 0.4 0.3 0.5 0.1 1 -0.3 0.7-0.8 0.7-1.4 0.6 -0.1-0.1-0.1-0.1-0.2-0.2 0 0 0 0.1-0.1 0.1 0.1 0 0.1 0.1 0.2 0.1 0 0.3 0 0.6-0.4 0.4 -0.5-0.2-0.6 0-0.5 0.5 0 0.2-0.2 0.3-0.3 0.5 -0.1-0.1-0.3-0.2-0.4-0.3 -0.2-0.2-0.5-0.4-0.7-0.6 0 0-0.1 0-0.1 0 0 0 0 0 0.1 0.1 -0.3 0.9-0.2 1.3 0.6 1.8 0.4 0.2 0.8 0.4 1.2 0.7 0.2 0.2 0.4 0.5 0.6 0.8 -0.2 0.1-0.4 0.2-0.6 0.3 0.3 0.5 0.3 0.6-0.3 0.8 -0.1 0-0.2 0.3-0.1 0.4 0.5 0.9 0.5 1.1-0.1 1.8 -0.5 0.6-0.8 1.2-0.7 1.9 0 0.3-0.1 0.5-0.5 0.6 -0.4 0.1-0.8 0.5-1.1 0.7 -0.3 0.2-0.4 0.5 0.1 0.6 0 0 0 0.4 0 0.4 -0.8 0.5-1.7 0.9-2.5 1.4 -0.6 0.3-1.2 0.4-1.8 0.3 -0.1 0-0.3 0.1-0.4 0.1 0.1 0.2 0.1 0.3 0.2 0.5 0 0 0.2-0.1 0.3-0.1 0.1 0 0.3 0 0.3 0 0 0.3 0.1 0.5 0.1 0.8 0 0.1-0.2 0.3-0.3 0.4 -0.2 0.1-0.5 0-0.8 0.1 -0.7 0.1-0.9-0.6-1.2-1 -0.1-0.1 0.1-0.5 0.2-0.8 0-0.2 0.4-0.4 0-0.5 -0.2-0.1-0.6-0.2-0.7-0.1 -0.5 0.3-0.7 0.2-0.8-0.3 0-0.1-0.1-0.2-0.1-0.3 -0.4-0.5-0.8-1-1.2-1.6 -0.1-0.1-0.1-0.2-0.2-0.4 0.1 0 0.2-0.1 0.4-0.1 0.2 0 0.4-0.1 0.5-0.1 -0.3-0.2-0.7-0.3-1-0.5 -0.4-0.3-1.4-0.1-1.2-1.1 0 0-0.1 0-0.1 0 -0.5-0.4-1-0.7-1.5-1.1 -0.2-0.2-0.4-0.4-0.6-0.7 -0.5-0.6-0.9-1.2-1.3-1.8 -0.7-0.9-1.3-1.7-2-2.6 -0.4-0.5-0.8-1-1.2-1.5 -0.3-0.3-0.7-0.7-0.7-1 0-0.6 0.3-1.1 0.5-1.7 0.4-1 0.9-1.9 1.1-2.8 0.2-0.9-0.1-1.9-0.2-2.8 0-0.1-0.1-0.2-0.1-0.2 -0.1 0-0.2 0-0.2 0 -0.2 0.3-0.3 0.6-0.4 0.9 -0.3 1.2-0.6 1.5-1.8 1.5 -0.4 0-0.8 0-1.3 0 0.3 0.2 0.5 0.3 0.5 0.4 0.1 0.2 0.1 0.6 0 0.6 -0.5 0.1-0.5 0.5-0.6 1.1 -0.4-0.6-0.6-1.1-0.9-1.5 -1-1.5-2.1-2.9-3.5-4.1 -0.2-0.2-0.4-0.4-0.6-0.5C42.2 9 42.1 9 42 9c0 0.1 0 0.2 0 0.3 0.1 0.4 0.2 0.8 0.3 1.2 0.1 0.5 0.2 1 0.3 1.4 0.2 0.7 0.4 1.4 0.7 2 0.3 0.8 0.6 1.6 1.5 2 0.1 0.1 0.2 0.3 0.3 0.4 -0.3 0.3-1-0.2-1 0.6 0 0-0.1 0-0.1 0 -0.2 0.2-0.3 0.5-0.5 0.7 -0.3 0.3-0.5 0.8-1.1 0.4 0 0-0.2 0-0.2 0.1 -0.1 0.7-0.5 0.4-0.8 0.2 -0.1 0-0.4 0-0.4 0.1 -0.2 0.3-0.2 0.6-0.4 0.8 0 0.1-0.4 0-0.5 0 -0.2-0.2-0.3-0.5-0.1-0.8 0.1-0.2 0.9-0.8 0-1.1 -0.1 0-0.1-0.5 0-0.7 0.1-0.3 0.3-0.2 0.5 0 0.1 0.1 0.2 0 0.3 0 0.1-0.6-1-0.2-0.7-1 0.2-0.4-0.1-1.1 0.8-1 -0.6-0.3-0.9-0.6-0.8-1.2 0-0.1-0.1-0.2-0.1-0.2 -0.3-0.6-0.5-1.2-0.8-1.9 -0.2-0.5-0.3-1-0.6-1.5 -0.1-0.2-0.5-0.3-0.8-0.4 -0.2-0.1-0.3-0.2-0.5-0.3 -0.5-0.4-0.7-1-1.4-1.1 -0.4 0-0.8 0-1.2 0 -0.3 0-0.7 0.1-0.8 0.2 -0.2 0.7 0 1.1 0.4 1.2 0.4 0 0.3 0.3 0.3 0.5 -0.2 0.5 0 0.7 0.5 0.9 0.2 0 0.3 0.1 0.5 0.1 0.1 0.1 0.2 0.2 0.3 0.2 -0.4 0.4 0 0.6 0.2 0.8 0.2 0.2 0.4 0.5 0.3 0.8 -0.1 1.2 0 1.2-1.2 1.1 0 0-0.1 0-0.1 0 0 0 0 0 0.1 0.1 0 0.2-0.1 0.3-0.1 0.5 0 0.1-0.1 0.2-0.2 0.3 -0.1 0-0.2 0-0.2 0 -0.1-0.3-0.3-0.5-0.7-0.5 -0.3 0-0.6-0.1-0.8 0 -0.6 0.3-1 0.1-1.5-0.3 -0.5-0.4-0.8-1.1-1.5-1.1 0 0-0.1-0.2-0.1-0.2 0-0.1 0.1-0.2 0.2-0.2 0.1-0.1 0.3-0.1 0.4-0.2 0.5-0.3 1.3 0 1.4 0.6 0 0.1 0.2 0.3 0.4 0.3 0.1 0 0.2-0.1 0.3-0.2 0.3-0.5 0.5-1.1 0.7-1.7 0.1 0.3 0.1 0.7 0.3 0.8 0.2 0.2 0.7 0.3 0.9 0.2 0.2-0.1 0.2-0.6 0.3-0.9 -0.4-0.1-0.5-0.7-1.1-0.5 -0.2 0.1-0.4 0.1-0.7 0.1 -0.3 0-0.5-0.1-0.7 0.2 -0.1 0.2-0.6 0.4-0.8 0.3 -0.3-0.2-0.6-0.6-0.8-0.9 -0.6-0.7-1.3-1.1-2.2-1.3 -0.6-0.1-1.3 0-2.1 0 0.3 0.4 0.3 0.4-0.1 0.6 -0.7 0.2-1.4 0.3-1.7 1.1 -0.1 0.3-0.3 0.7-0.9 0.7 -0.3 0-0.7 0.2-0.8 0.3 -0.1 0.5-0.4 0.3-0.7 0.4 -0.2 0-0.4 0-0.7 0.1 0 0.1 0 0.1 0 0.2 0.7 0 1.4 0 2 0 0.4 0 0.9-0.4 1.2 0.3 0 0.1 0.2 0.2 0.4 0.2 0.5 0 0.3 0.2 0.2 0.5 -0.1 0.2-0.1 0.4-0.1 0.5 0.6 0.3 0.4 0.6 0.1 1 -0.1 0.2-0.1 0.4-0.2 0.5 0.2 0 0.3 0 0.5 0 0 0 0.1 0 0.1 0 -0.1 0.5-0.3 1-0.4 1.6 -0.1 0.5-0.2 1.1-0.3 1.7 0 0.1-0.1 0.2-0.1 0.3 0.1 0 0.3 0 0.4 0 0.2 0 0.4 0 0.5 0.1 0.1 0.1 0 0.3 0 0.5 0 0.4-0.3 0.8 0.1 1.2 -0.1-0.7 0.2-0.9 0.8-0.8 0.1 0 0.2-0.1 0.4-0.1 0.2 0 0.5-0.1 0.7-0.1 0 0.2-0.1 0.3-0.1 0.5 0 0.1 0.2 0.1 0.3 0.2 0.8 0.3 1.7 0.3 2.2 1 0.2 0.3 0.5 0.5 1 0.2 0.2-0.2 0.6-0.2 0.8-0.3 0.8-0.3 1.5-0.6 2.3-0.9 0.3-0.1 0.6-0.4 0.9-0.5 0.4-0.1 0.8-0.2 1.2-0.3l0 0c0.6-0.2 1.3-0.4 1.9-0.7 0.5-0.3 0.6 0 0.5 0.3 -0.2 0.5 0.3 0.7 0.5 1 0.2 0.3 0.6 0.5 0.9 0.8 0.5 0.5 0.5 1.2 0 1.4 -0.3 0.1-0.4 0.3-0.4 0.5 0.1 0.4-0.1 0.4-0.4 0.4 -0.2 0-0.3 0-0.5 0 0.6 0.8 0.1 1.8-0.4 2.3 -0.6 0.6-1.3 1.2-1.5 2.2 0 0.2-0.2 0.6-0.3 0.6 -0.6 0.2-1.2 0.4-1.7 0.9 -0.3 0.2-0.4 0.4 0 0.6 0.1 0.1 0.2 0.2 0.3 0.3 -0.2 0.1-0.3 0.3-0.4 0.3 -0.3 0.1-0.7 0.3-0.9 0.2 -0.6-0.3-0.6-0.5-0.2-1.1 0.1-0.2 0.1-0.4 0.2-0.6 -0.2 0.1-0.5 0.1-0.7 0.2 -0.3 0.1-0.5 0.1-0.8 0.1 -0.1 0-0.1-0.2-0.2-0.3 -0.2-0.4-0.4-0.8-0.7-1.1 -0.4-0.3-0.6-0.6-0.2-1.1 -0.2 0-0.3 0-0.4 0 -0.5-0.1-1.2 0.2-1.1-0.7 0 0-0.1-0.1-0.2-0.1 -0.4-0.2-0.8-0.5-1.2-0.7 -0.9-0.6-1.7-1.3-2.5-2 -0.5-0.5-1-1.1-1.6-1.5 -0.6-0.3-1-1.4-2-0.8 0 0 0 0-0.1 0 -0.3-0.2-0.6-0.5-0.8-0.7 -0.5-0.4-0.9-0.9-1.3-1.3 -0.5-0.5-1.2-0.8-1.7-1.3 -0.3-0.2-0.6-0.6-0.9-0.7 -0.9-0.2-1.8-0.8-2.8-0.6 -0.1 0-0.2-0.1-0.2-0.1 0 0.1 0 0.2 0.1 0.3 0.4 0.6 0.9 1.2 1.3 1.9 0.5 1 1.4 1.5 2.2 1.9 0.3 0.2 0.6 0.2 0.7 0.6 0.1 0.4 0.5 0.7 0.6 1.3 0.1 0.8 0.8 1.3 1.7 1.7 0.9 0.3 1.7 0.7 2.5 1.2 0.2 0.1 0.5 0.6 0.5 0.7 -0.2 0.5 0.2 0.5 0.4 0.6 0.1 0.1 0.4 0.1 0.5 0.2 0.9 0.7 1.7 1.3 2.4 2.2 0.3 0.4 0.6 0.7 0.9 1.1 0.3 0.5 1 0.7 0.9 1.5 0 0.3 0 0.5 0.4 0.3 0.1-0.1 0.6 0.1 0.6 0.2 0.2 0.4-0.2 0.3-0.5 0.4 -0.1 0-0.3 0.2-0.3 0.2 0.1 0.2 0.2 0.3 0.3 0.5 0.1 0.2 0.3 0.5 0.3 0.8 0 0.2-0.3 0.4-0.5 0.4 -0.3 0.1-0.6 0-0.9 0 -0.2 0-0.4 0.2-0.6 0.2 0.2 0.1 0.4 0.2 0.6 0.2 0.1 0 0.2 0 0.2 0 -0.1 0.7-0.2 1.3-0.3 2 -0.1 0.6-0.4 1-0.9 1 -0.1 0-0.1 0.1-0.2 0.2 -0.4 0.7-0.7 1.4-1.2 2 -0.4 0.5-0.7 1-1 1.5 -0.2 0.4-0.6 0.8-0.9 1.2 -0.1 0-0.1 0-0.2 0 0.1 0 0.1 0.1 0.2 0.1 -0.4 0.4-0.9 0.4-1.2 0.9 -0.1 0.1-0.3 0.2-0.4 0.4 -0.1 0.1-0.3 0.2 0 0.3 -0.2 0.1-0.4 0.3-0.6 0.4 -0.5 0.4-0.9 0.8-1.4 1.2 -0.7 0.6-1.4 1.2-2.1 1.8 -0.4 0.4-0.8 0.8-1.2 1.2 0 0-0.1 0-0.1 0 0 0 0 0 0.1 0.1 -0.3 0.4-0.6 0.8-0.8 1.3 -0.2 0.3-0.3 0.6-0.7 0.7 -0.2 0-0.5 0.3-0.5 0.5 -0.1 0.5-0.2 1.1-0.3 1.6 0 0.2-0.1 0.5-0.1 0.7 0 0.2 0.1 0.5 0.1 0.6 -0.1 0.2-0.3 0.4-0.5 0.6 -0.1 0.1-0.4 0.3-0.4 0.3 -0.3-0.3-0.4 0.1-0.5 0.2 -0.5 0.7-0.9 1.4-1.3 2.1 -0.1 0.1-0.1 0.4-0.1 0.4 0.5 0.2 0.3 0.7 0.2 0.9 -0.2 0.4 0 1.2-0.9 1 0 0-0.1 0.2-0.1 0.3 0 0.3 0 0.7-0.1 1 -0.3 0.7-0.5 1.4-0.9 2 -0.3 0.4-0.4 1-1 1.2 -0.2 0.1-0.5 0.5-0.4 0.7 0.1 0.5-0.2 0.7-0.4 1 -0.3 0.4-0.7 1-0.6 1.3 0.4 0.8-0.2 1.1-0.4 1.5 -0.3 0.6-0.7 1.1-1.1 1.6 -0.3 0.5-0.5 1.2-0.9 1.6 -0.7 0.7-0.9 1.5-1.2 2.4 0 0.1-0.1 0.3-0.1 0.4 -0.1 0.3-0.3 0.5-0.3 0.8 -0.1 0.5-0.1 1-0.2 1.5 0.5 0.1 0.9 0.1 1.2-0.5C5 77 5.2 76.8 5.4 76.7c0.7-0.4 1.2-1 1.7-1.6 0.6-0.7 0.9-1.5 1-2.3 0-0.1 0.1-0.2 0.2-0.3 0.3-0.2 0.6-0.4 0.8-0.6 0.2-0.2 0.4-0.4 0.6-0.5 0.5-0.2 0.9-0.6 1.1-1.1l0 0c0.3-0.4 0.6-0.8 0.8-1.3 0.2-0.5 0.3-1 0.5-1.5 0.1-0.2 0.2-0.4 0.2-0.6 0.1-0.9 0.4-1.2 1.3-1.2 0.5 0 0.5 0.2 0.3 0.6 -0.2 0.4-0.6 0.8-0.3 1.2 0.2-0.1 0.4-0.2 0.5-0.3 0 0.2 0 0.3-0.1 0.5 -0.1 0.4-0.2 0.8-0.3 1.2 0 0.1 0.1 0.2 0.2 0.3 0.1-0.1 0.1-0.2 0.2-0.3 0.2-0.5 0.5-0.9 0.7-1.4 0.6-1.1 1.3-2.3 1.9-3.4 0.1-0.2 0.1-0.8 0-0.8 -0.5-0.1-0.4-0.5-0.4-0.8 0-0.5-0.1-1-0.4-1.4 -0.1-0.2-0.1-0.4-0.1-0.7 0.4 0.2 0.2-0.2 0.4-0.4 0.2-0.1 0.3-0.4 0.4-0.6 0.4-0.6 0.8-1.1 1.3-1.6 0.2-0.3 0.6-0.4 0.8-0.6 -0.1-0.3-0.2-0.6-0.3-0.8 0.2 0 0.4-0.1 0.6 0 0.2 0 0.3 0.3 0.4 0.4 0 0.1 0.1 0.1 0.1 0.2 0.1-0.1 0.2-0.2 0.1-0.2 -0.1-0.4 0.2-0.7 0.4-1 0.3-0.3 0.5-0.6 0.8-0.9 0.1-0.1 0.3-0.2 0.4-0.1 0.6 0.3 1.1 0.4 1.7 0 0.1-0.1 0.3 0 0.4 0 0.1 0 0.2 0 0.3 0 -0.1-0.1-0.2-0.2-0.2-0.3 -0.1-0.4-0.1-0.9-0.1-1.3 0-0.1 0.5-0.1 0.8-0.1 0.1 0 0.2 0.1 0.2 0.1 0.5-0.2 0.9-0.4 1.4-0.6 0.1 0 0-0.3 0-0.4 0-0.1-0.1-0.1-0.2-0.3 0.2 0 0.3 0 0.4-0.1 0.8-0.3 0.9-0.2 1 0.6 0 0.2 0.2 0.5 0.4 0.7 0.4 0.3 0.9 0.4 1 1 0 0.1 0.2 0.1 0.3 0.1 0.1 0.1 0.3 0.2 0.4 0.2 -0.1 0.1-0.2 0.1-0.3 0.2 -0.1 0.1-0.2 0.2-0.2 0.3 0 0.2 0.2 0.5 0.2 0.4 0.3 0 0.6-0.1 0.9-0.2 0.1 0 0.2-0.3 0.1-0.3 -0.4-0.3-0.1-0.6 0.2-0.9 0.1 0.4 0.1 0.8 0.2 1.1 0-0.6 0.4-0.9 0.9-1.1 0.3-0.2 0.7-0.3 0.6-0.8 0-0.1 0.2-0.3 0.3-0.4 0.2-0.1 0.5-0.2 0.6-0.3 0.2-0.4 0.3-0.1 0.4 0 0.6 0.6 1.1 1.2 1.7 1.8 0.1 0.2 0.4 0.4 0.3 0.6 -0.1 0.8 0.6 1.2 1 1.6 0.5 0.3 0.4 0.5 0 0.7 -0.3 0.2-0.4 0.4-0.2 0.7 0.2 0.4 0.3 0.9 0.5 1.3 0.1 0.2 0.3 0.6 0.4 0.6 1 0 1.3 0.8 1.6 1.5 0.3 0.4 0.3 1 0.5 1.5 0.1 0.3 0.1 0.5 0.1 0.8 0 0.3-0.1 0.7 0.1 0.8 0.3 0.3 0.3 0.6 0.3 1 0 0.2 0.1 0.5 0.2 0.7 0.2 0.8 0.5 1.6 0.7 2.3 0.3 0.9 0.6 1.9 1.1 2.7 0.4 0.7 0.6 1.6 1 2.4 0.3 0.7 0.4 1.5 1.3 1.8 0.4 0.1 0.7 0.5 1 0.7 0.1 0 0.1 0.1 0.1 0.2 0.1-0.1 0.2-0.2 0.2-0.3 -0.1-0.4-0.1-0.8-0.3-1.1 -0.3-0.6-0.1-1 0.4-1.4 0.3-0.2 0.7-0.4 1-0.6 0.1 0 0.1-0.2 0.1-0.2 -0.1 0-0.1 0.1-0.2 0.1 -0.2 0-0.4 0-0.5-0.1 -0.1-0.1-0.1-0.3-0.2-0.4 0-0.1 0-0.3 0-0.5 0-0.1 0.1-0.3 0.2-0.3 0.3-0.1 0.6-0.1 0.9-0.1 -0.3-0.6-0.3-1 0.3-1.3 -0.2 0-0.4 0-0.6-0.1 -0.1 0-0.2-0.1-0.4-0.1 0.1-0.1 0.1-0.3 0.2-0.4 0.1-0.1 0.1-0.2 0.2-0.3 0.3-0.2 0.4-0.4 0.3-0.9 -0.2-1 0.1-1.4 0.7-1.6 -0.3-0.5-0.2-0.6 0.3-0.6 0.6 0 0.2-0.4 0.2-0.6 0-0.2-0.2-0.3-0.3-0.5 -0.1-0.1-0.1-0.2-0.1-0.3 0.2 0 0.3-0.1 0.5-0.1 0.2 0 0.3 0.1 0.5 0.1 0.2 0 0.4 0 0.5-0.1 0.1-0.1 0.1-0.4 0-0.5 -0.3-0.3-0.5-0.6-1-0.6 -0.5 0.1-0.9 0-1.4 0.1 -0.5 0.1-0.8-0.1-1.1-0.5 -0.3-0.4-0.2-0.5 0.2-0.5 0 0 0-0.1 0-0.1 -0.2 0-0.3-0.1-0.5-0.1 0-0.1 0-0.2 0.1-0.2 0.5-0.7-0.3-0.7-0.5-1 -0.1-0.1-0.4 0.2-0.4-0.1 -0.1-0.6-0.1-1.3-0.2-1.9 -0.1-0.4-0.1-1-0.3-1.1 -0.5-0.2-0.5-0.6-0.5-0.9 0.1-0.6-0.2-1-0.5-1.5 -0.3-0.5 0-0.8 0.2-1.1 0.1-0.1 0.3-0.4 0.2-0.5 -0.1-0.2-0.3-0.3-0.5-0.4 -0.2-0.1-0.4 0-0.8-0.1 0.7-0.6 1.1-1.2 1.9-1.2 0.1 0 0.3-0.2 0.3-0.2 0-0.2-0.1-0.3-0.2-0.5 -0.1-0.1-0.2-0.3-0.2-0.4 0.2-0.4 0.2-0.9 0.8-1 0.1 0 0.1-0.3 0.1-0.5 0 0-0.2-0.1-0.2-0.1 -0.1 0.1-0.3 0.2-0.4 0.2 -0.1 0.1-0.4 0.2-0.4 0.2 -0.2-0.2-0.4-0.4-0.4-0.6 0.1-0.5 0.4-1 0.5-1.5 0.1-0.2 0-0.4 0.1-0.6 0 0-0.2-0.1-0.2 0 -0.1 0.1-0.1 0.3-0.2 0.4 0 0.1 0 0.1 0 0.2 -0.1 0.1-0.2 0.2-0.2 0.2 -0.1 0-0.2-0.1-0.2-0.2 0-0.6-0.5-0.7-0.9-0.9 -0.3-0.1-0.6-0.5-0.9-0.7 -0.1-0.1 0-0.4 0.1-0.4 0.4-0.2 0.2-0.3 0-0.5 -0.2-0.1-0.3-0.3-0.4-0.5 -0.4-0.8-0.9-1.7-1.2-2.5 -0.4-0.9-0.9-1.7-0.4-2.7 0.1-0.1 0.2-0.3 0.2-0.4 0.2-0.4 0.4-0.8 0.6-1.2 0.1-0.4 0.2-0.8 0.2-1.2 0-0.4-0.1-0.8-0.1-1.3 0-0.2-0.1-0.5 0.4-0.3 0.3 0.1 0.8 0.4 1-0.3 0.2-0.6 0.8-1.2 1.2-1.8 0.2-0.3 0.3-0.6 0.1-0.9 -0.2-0.3-0.2-0.7-0.2-1 0.3-1.3 0.9-2.4 1.8-3.3 0.5-0.5 0.7-1.2 1.1-1.8l0 0c0.3-0.4 0.5-0.8 0.8-1.3 0.2 0.2 0.4 0.4 0.5 0.6 0.3 0.4 0.6 0.8 0.9 1.2 0.5 0.7 1 1.5 1.6 2.2 0.4 0.5 1 0.9 1.6 1.3 0.1-0.6-0.3-1.3-0.8-1.8 -0.3-0.3-0.6-0.7-0.7-1.1 -0.1-0.4 0.1-0.8 0.2-1.2l0 0c0.2 0 0.4 0 0.5 0.1 1 1.1 2.1 2.2 3.1 3.4 1 1.2 1.7 2.6 2.6 3.9 0.3 0.4 0.5 0.7-0.3 0.7 -0.2 0-0.3 0.2-0.5 0.3 0 0.1 0 0.1 0 0.2 0.3 0 0.7-0.1 1-0.1 0.2 0 0.5-0.1 0.7-0.1 0.1 0 0.2 0.1 0.3 0.2 -0.1 0.1-0.1 0.2-0.2 0.3 -0.3 0.2-0.7 0.4-1.2 0.6 0.8 0 1.2 0.2 1.2 0.9 0 0.4 0.3 0.8 0.5 1.1 0.3 0.4 0.3 0.4-0.2 0.5 -0.2-0.2-0.4-0.4-0.6-0.6 -0.1-0.1-0.2-0.1-0.2-0.1 0 0.1-0.1 0.2 0 0.3 0.2 0.4 0.5 0.4 0.9 0.4 0.3 0.3 0.2 0.5-0.2 0.5 -0.2 0-0.3 0-0.6 0.1 1.3 0.6 0.3 1.5 0.5 2.2 0.4-0.2 0.8-0.8 1.2-0.3 0.1 0.1-0.1 0.5-0.1 0.7 0.4 0 0.8 0 1.3 0.1 0 0.1 0 0.1 0 0.2 -0.2 0-0.5 0-0.7 0.1 -0.2 0-0.3 0.2-0.5 0.3 0 0 0.1 0.3 0.2 0.4 0.2 0.2 0.1 0.4 0 0.5 -0.2 0.2-0.3 0.5-0.5 0.7 -0.2 0.3-0.5 0.6-0.8 0.8 -0.1 0-0.3-0.3-0.5-0.4 -0.3-0.1-0.6-0.2-0.9-0.3 -0.1-0.1-0.1-0.1-0.2-0.2 0 0 0 0-0.1 0.1 0.1 0 0.1 0.1 0.2 0.1 0.2 0.2 0.5 0.5 0.7 0.7 0.5 0.3 0.4 0.6 0.1 0.9 -0.2 0.3-0.5 0.4-0.8 0.7 -0.8 0.8-1.3 1.8-1.7 2.9 0 0.1 0.2 0.3 0.3 0.4 0 0.1 0.2 0.1 0.2 0.1 -0.1 0.4-0.1 0.8-0.3 1.2 -0.1 0.1-0.5 0.1-0.7 0.1 -0.2 0-0.5 0.1-0.5 0.2 0 0.2 0.1 0.5 0.2 0.7 0 0.1 0.2 0.2 0.3 0.2 0.5 0.2 0.4 0.5 0.1 0.8 -0.2 0.3-0.4 0.5-0.6 0.8 -0.1 0.3-0.2 0.6-0.3 1 -0.2-0.4-0.4-0.6-0.5-0.9 -0.1 0-0.1 0.1-0.2 0.1 0.1 0.4 0.3 0.8 0.4 1.2 0.1 0.3 0 0.6-0.1 1 0 0.1-0.1 0.2-0.1 0.4 -0.1 0.7-0.1 1.4-0.2 2 -0.2 1-0.6 2-0.9 3 -0.3 0.9-0.5 1.9-0.7 2.8 0 0.1-0.2 0.2-0.3 0.3 0.6 0.2 0.8 0.5 0.3 1 -0.1 0.2-0.3 0.4-0.4 0.6 -0.2 0.6-0.4 1.2-0.5 1.8 -0.2 0.7-0.3 1.5-0.5 2.2 -0.4 1.2-0.1 2.4 0.1 3.6 0 0.1 0.1 0.2 0.2 0.3 0.1-0.1 0.2-0.2 0.3-0.3 0.1-0.1 0.2-0.3 0.3-0.5 0.3-0.4 0.7-0.7 1-1.1 0.3-0.4 0.6-0.9 0.8-1.4 0.2-0.5 0.4-1.2 0.3-1.7 -0.1-0.4-0.1-0.6 0.2-0.9 0.2-0.2 0.3-0.4 0.4-0.6 0.1-0.1 0.3-0.3 0.4-0.3 0.6 0.1 0.8-0.5 0.9-0.7 0.2-0.6 0.2-1.3 0.3-1.9 0.1-0.7 0.1-1.4 0.2-2.1 0.1-0.8 0.2-0.8 1-0.8C55.8 60.8 55.8 60.9 55.8 60.9c-0.1 0-0.1 0-0.1 0C55.7 61 55.8 60.9 55.8 60.9zM21.9 26C21.8 26 21.8 26 21.9 26 21.8 26 21.8 26 21.9 26 21.8 26 21.8 26 21.9 26c0 0.1 0 0.3 0.1 0.4 0 0.1 0.1 0.3 0.1 0.3 -0.2 0.1-0.4 0.2-0.5-0.1 -0.2-0.4-0.5-0.5-0.9-0.4 -0.1 0-0.2 0.1-0.5 0.1 0.2 0.1 0.3 0.2 0.4 0.3 0.6 0.4 1.3 0.7 1.9 1.1 0.7 0.6 1.3 1.2 2 1.8 0.1 0.1 0.4 0.2 0.5 0.1 0.1-0.1 0.2-0.3 0-0.6 -0.5-0.7-1.3-1.3-1-2.2 -0.3-0.1-0.5-0.1-0.7-0.2C22.7 26.5 22.5 25.9 21.9 26zM60.8 20c0 0.3 0 0.5 0 0.8 0.1 0 0.2 0 0.3-0.1C61.1 20.5 61 20.2 60.8 20c0.1-0.2 0.3-0.3 0.4-0.5 0.1 0.4 0.2 0.8 0.3 1.2 0 0.1 0.2 0.1 0.3 0.2 0-0.1 0-0.2 0-0.3 0-0.2 0-0.4 0.1-0.6 0.1-0.3 0.3-0.6 0.4-0.9 0.2 0.5 0.2 0.5 0.6 0.2 0 0 0.1 0 0.1 0 0.7-0.2 1.3-0.4 2-0.1 0.3 0.1 0.8 0.1 1.1 0.1 0.4 0 0.9-0.2 1.3-0.2 0.9 0 1.5-0.5 2-1.1 0.2-0.3 0.4-0.6 0.6-0.9 -0.3-0.1-0.7-0.1-0.5-0.6 0.1-0.4 0.2-0.6 0.7-0.5 0.2 0 0.4-0.1 0.5-0.1 -0.1-0.2-0.1-0.3-0.2-0.5 -0.1-0.2-0.5-0.5-0.4-0.7 0.1-0.6 0.4-1.2 0.6-1.8 0.1 0.1 0.3 0.2 0.5 0.4 0-0.4-0.2-0.7-0.6-1 -0.1-0.1-0.3-0.3-0.3-0.3 0.2-0.4-0.1-0.7-0.3-1.1 -0.7-1.2-1.4-2.3-2.4-3.2 -0.3-0.2-0.8-0.6-0.9-0.5 -0.7 0.5-1.2-0.1-1.7-0.2 -0.5-0.2-1.7 0.3-1.9 0.8C63 8.4 62.6 8.5 62 8.2c-0.1 0-0.3 0.1-0.3 0.1 0.1 0.5-0.1 0.9-0.2 1.4 0 0.1 0 0.1 0 0.2 -0.1 0-0.2 0-0.2-0.1 -0.1-0.1-0.1-0.2-0.1-0.3 -0.2 0.4-0.4 0.9-0.8 1.3 -0.3 0.3-0.7 0.6-1.1 0.9 -0.1 0.1-0.4 0-0.5-0.1 -0.6-0.3-1.2-0.6-1.8-1 0 0.3 0 0.4 0 0.5 0.1 0.4 0.1 0.6-0.4 0.6 -0.5 0-0.9 0.3-1.3 0.5 0 0 0 0.1 0 0.1 0.2 0 0.4 0 0.6 0 0.1 0 0.2 0.1 0.3 0.1 -0.1 0.1-0.1 0.2-0.2 0.2 -0.1 0.1-0.3 0.1-0.4 0.1 -0.1 0-0.2 0.1-0.2 0.1 0 0.2-0.1 0.5-0.1 0.7 0 0.1 0.2 0.2 0.3 0.2 0.1 0 0.2 0 0.4 0 -0.1 0.1-0.1 0.2-0.2 0.3 -0.2 0.2-0.4 0.4-0.1 0.8 0.1 0.2 0.1 0.6 0 0.7 -0.5 0.3-0.1 0.7-0.4 1 0 0 0.1 0.2 0.1 0.2 0.6 0.1 0.4 0.3 0.1 0.6 -0.2 0.1-0.3 0.3-0.4 0.5 -0.1 0.1 0 0.2-0.1 0.4 0.1 0 0.3 0 0.4 0 0.1 0 0.2-0.1 0.3-0.2 0.4-0.5 0.9-1 1.3-1.6 0.4-0.6 1.1 0.4 1.4-0.4 0 0 0.1 0.1 0.1 0.1 0.2 0.3 0.9 0.3 0.8 0.9 0 0 0.3 0.1 0.4 0.2 0.1 0.1 0.3 0.1 0.3 0.2 0.2 0.7 0.3 1.4 0.5 2.2C60.6 19.9 60.8 19.9 60.8 20zM48.9 76.4c-0.2 0.2-0.4 0.4-0.6 0.4 -0.1 0-0.3-0.3-0.4-0.4 -0.1-0.1-0.1-0.2-0.1-0.3 -0.1-0.1-0.1-0.1-0.2-0.2 -0.1 0.1-0.2 0.2-0.2 0.3 0 0.3-0.1 0.5 0.3 0.7 0.4 0.2 0.8 0.5 1.2 0.7 0.1 0.1 0.3 0.1 0.5 0.1 0-0.1 0-0.3-0.1-0.4C49.2 76.9 49.1 76.7 48.9 76.4zM38.7 2c0-0.2 0-0.4 0-0.5 -0.1-0.4-0.4-0.7-0.8-0.5 -0.3 0.1-0.5 0.5-0.6 0.8 -0.1 0.3 0.3 0.4 0.6 0.4 0.1 0 0.3 0 0.3 0C38.8 2.6 38.7 2.1 38.7 2zM54 36.9c0 0-0.1 0.1-0.1 0.1 0.6 0.6 1.1 1.1 1.7 1.7 0.1 0.1 0.3 0.1 0.4 0.2 0-0.2 0-0.4-0.2-0.6 -0.4-0.4-0.9-0.8-1.3-1.2C54.3 37 54.1 37 54 36.9zM10.2 13.5c-0.4-0.2-0.7-0.3-1-0.5 -0.2 0.3-0.3 0.7-0.5 1C9.1 14 9.3 14 9.5 13.9 9.7 13.8 9.9 13.7 10.2 13.5zM19.4 27.9c0.1-0.2 0.2-0.4 0.2-0.4 -0.2-0.3-0.4-0.5-0.6-0.7 -0.2 0.2-0.4 0.4-0.6 0.6C18.7 27.5 19.1 27.7 19.4 27.9zM58.8 64.7c-0.2-0.3-0.4-0.5-0.5-0.7 -0.2 0.3-0.4 0.6-0.6 0.9 0 0 0.3 0.3 0.5 0.3C58.4 65.2 58.5 65 58.8 64.7zM40.7 6.9c0.3-0.2 0.5-0.4 0.7-0.5C41.1 6.2 40.8 6 40.5 6c-0.1 0-0.3 0.3-0.3 0.4C40.3 6.5 40.5 6.7 40.7 6.9zM76.4 67c-0.1-0.5-0.5-0.4-0.8-0.4 -0.1 0-0.3 0.1-0.3 0.2 0.1 0.2 0.1 0.4 0.3 0.5 0.1 0.1 0.2 0 0.3 0C76.1 67.1 76.2 67 76.4 67zM72.8 66.7c0.3 0 0.6 0.1 0.8 0 0.1 0 0.3-0.3 0.3-0.5 0-0.1-0.2-0.3-0.3-0.3 -0.1 0-0.3 0-0.4 0.1C73.1 66.2 73 66.5 72.8 66.7zM45.1 37.6c-0.1-0.1-0.2-0.1-0.3-0.2 0.2-0.4-0.1-0.5-0.3-0.6 -0.1-0.1-0.4 0-0.6 0 0.1 0.2 0.2 0.5 0.3 0.6C44.5 37.5 44.7 37.5 45.1 37.6zM77.6 33.3c0.3-0.2 0.4-0.3 0.5-0.4 -0.2-0.2-0.4-0.4-0.6-0.6 -0.1 0.1-0.3 0.3-0.3 0.4C77.2 32.9 77.4 33 77.6 33.3zM44.6 34.1c-0.1 0-0.1 0-0.2 0 0.1 0.3-0.6 0.5-0.1 0.8 0.1 0.1 0.4 0 0.6 0C44.8 34.7 44.7 34.4 44.6 34.1zM78.7 34.8c-0.3-0.2-0.5-0.4-0.8-0.5 -0.1 0-0.3 0.1-0.4 0.2 0.2 0.2 0.5 0.3 0.7 0.4 0.1 0 0.3 0 0.4 0C78.6 35 78.6 34.9 78.7 34.8zM72.2 42.4c-0.1-0.2-0.2-0.3-0.3-0.5 -0.1 0.1-0.2 0.2-0.2 0.3 0 0.2 0.2 0.4 0.2 0.7C72 42.8 72.1 42.6 72.2 42.4zM48.4 74.8c0.4 0.2 0.7 0.4 1 0.5 0-0.1 0.1-0.2 0.1-0.3C49.3 74.7 49 74.6 48.4 74.8zM62.5 52.5c-0.1 0-0.1 0-0.2 0 0.1 0.4-0.4 0.8 0.2 1.1C62.5 53.3 62.5 52.9 62.5 52.5z"/><path fill-rule="evenodd" clip-rule="evenodd" fill="#BCD57C" d="M10.9 70.2c-0.2 0.5-0.5 0.9-1.1 1.1 -0.2 0.1-0.4 0.3-0.6 0.5 -0.3 0.2-0.6 0.4-0.8 0.6 -0.1 0.1-0.2 0.2-0.2 0.3 -0.1 0.9-0.4 1.6-1 2.3 -0.5 0.6-1 1.2-1.7 1.6C5.2 76.8 5 77 4.9 77.2c-0.3 0.5-0.7 0.6-1.2 0.5 0.1-0.5 0.1-1 0.2-1.5 0.1-0.3 0.2-0.5 0.3-0.8 0.1-0.1 0.1-0.3 0.1-0.4 0.3-0.8 0.5-1.7 1.2-2.4 0.4-0.4 0.6-1.1 0.9-1.6 0.3-0.6 0.8-1.1 1.1-1.6 0.2-0.5 0.9-0.8 0.4-1.5 -0.1-0.2 0.3-0.9 0.6-1.3 0.3-0.3 0.5-0.6 0.4-1 0-0.2 0.2-0.6 0.4-0.7 0.6-0.2 0.7-0.8 1-1.2 0.4-0.6 0.7-1.3 0.9-2 0.1-0.3 0.1-0.7 0.1-1 0-0.1 0.1-0.3 0.1-0.3 0.9 0.2 0.7-0.6 0.9-1 0.1-0.2 0.3-0.7-0.2-0.9 0 0 0-0.3 0.1-0.4 0.4-0.7 0.9-1.4 1.3-2.1 0.1-0.1 0.2-0.5 0.5-0.2 0 0 0.3-0.2 0.4-0.3 0.2-0.2 0.4-0.4 0.5-0.6 0.1-0.2-0.1-0.4-0.1-0.6 0-0.2 0.1-0.5 0.1-0.7 0.1-0.5 0.1-1.1 0.3-1.6 0.1-0.2 0.3-0.5 0.5-0.5 0.4-0.1 0.5-0.4 0.7-0.7 0.2-0.4 0.5-0.9 0.8-1.3 0 0 0 0 0 0 0.4-0.4 0.8-0.8 1.2-1.2 0.7-0.6 1.4-1.2 2.1-1.8 0.5-0.4 0.9-0.8 1.4-1.2 0.2-0.2 0.4-0.3 0.6-0.4 -0.3-0.1-0.1-0.2 0-0.3 0.1-0.1 0.3-0.2 0.4-0.4 0.2-0.5 0.8-0.6 1.2-0.9 0 0 0 0 0 0 0.3-0.4 0.7-0.8 0.9-1.2 0.3-0.5 0.6-1 1-1.5 0.5-0.6 0.8-1.3 1.2-2 0.1-0.1 0.1-0.2 0.2-0.2 0.5-0.1 0.8-0.5 0.9-1 0.1-0.7 0.2-1.3 0.3-2 0 0-0.1 0-0.2 0 -0.2-0.1-0.4-0.1-0.6-0.2 0.2-0.1 0.4-0.2 0.6-0.2 0.3 0 0.6 0 0.9 0 0.2-0.1 0.5-0.3 0.5-0.4 0-0.2-0.2-0.5-0.3-0.8 -0.1-0.2-0.2-0.3-0.3-0.5 0 0 0.2-0.2 0.3-0.2 0.2-0.1 0.6 0 0.5-0.4 -0.1-0.1-0.5-0.3-0.6-0.2 -0.4 0.2-0.5 0-0.4-0.3 0.1-0.8-0.6-1-0.9-1.5 -0.2-0.4-0.6-0.7-0.9-1.1 -0.7-0.9-1.5-1.5-2.4-2.2 -0.1-0.1-0.3-0.1-0.5-0.2 -0.2-0.1-0.6-0.1-0.4-0.6 0.1-0.1-0.3-0.6-0.5-0.7 -0.8-0.4-1.7-0.8-2.5-1.2 -0.8-0.3-1.6-0.9-1.7-1.7 -0.1-0.6-0.5-0.8-0.6-1.3 -0.1-0.5-0.4-0.5-0.7-0.6 -0.9-0.5-1.7-1-2.2-1.9 -0.3-0.7-0.9-1.3-1.3-1.9 -0.1-0.1 0-0.2-0.1-0.3 0.1 0 0.2 0.1 0.2 0.1 1-0.2 1.9 0.4 2.8 0.6 0.3 0.1 0.6 0.5 0.9 0.7 0.6 0.4 1.2 0.8 1.7 1.3 0.5 0.4 0.9 0.9 1.3 1.3 0.3 0.3 0.6 0.5 0.8 0.7 0 0 0 0 0.1 0 1-0.6 1.4 0.5 2 0.8 0.6 0.4 1.1 1 1.6 1.5 0.8 0.7 1.6 1.4 2.5 2 0.4 0.2 0.8 0.5 1.2 0.7 0.1 0 0.2 0.1 0.2 0.1 -0.1 1 0.6 0.7 1.1 0.7 0.1 0 0.2 0 0.4 0 -0.4 0.5-0.2 0.8 0.2 1.1 0.3 0.3 0.5 0.7 0.7 1.1 0.1 0.1 0.1 0.3 0.2 0.3 0.3 0 0.5-0.1 0.8-0.1 0.2 0 0.5-0.1 0.7-0.2 -0.1 0.2-0.1 0.4-0.2 0.6 -0.3 0.5-0.3 0.8 0.2 1.1 0.2 0.1 0.6-0.1 0.9-0.2 0.1 0 0.2-0.2 0.4-0.3 -0.1-0.1-0.2-0.2-0.3-0.3 -0.3-0.2-0.3-0.3 0-0.6 0.5-0.4 1.1-0.7 1.7-0.9 0.1 0 0.3-0.4 0.3-0.6 0.2-1 0.9-1.6 1.5-2.2 0.5-0.5 1-1.5 0.4-2.3 0.2 0 0.4 0 0.5 0 0.3 0 0.5 0 0.4-0.4 -0.1-0.2 0-0.4 0.4-0.5 0.5-0.1 0.4-0.9 0-1.4 -0.3-0.3-0.7-0.5-0.9-0.8 -0.2-0.3-0.6-0.5-0.5-1 0.1-0.3 0-0.6-0.5-0.3 -0.6 0.3-1.2 0.5-1.9 0.7 0 0-0.1 0-0.1 0 0 0 0 0 0.1 0.1C36.4 20 36 20 35.6 20.1c-0.3 0.1-0.6 0.4-0.9 0.5 -0.7 0.3-1.5 0.6-2.3 0.9 -0.3 0.1-0.6 0.1-0.8 0.3 -0.4 0.4-0.7 0.1-1-0.2 -0.6-0.7-1.5-0.7-2.2-1 -0.1 0-0.3-0.1-0.3-0.2 0-0.2 0-0.3 0.1-0.5 -0.2 0-0.5 0-0.7 0.1 -0.1 0-0.3 0.2-0.4 0.1 -0.6-0.1-0.9 0.1-0.8 0.8 -0.3-0.4-0.1-0.8-0.1-1.2 0-0.2 0.1-0.4 0-0.5 -0.1-0.1-0.3-0.1-0.5-0.1 -0.1 0-0.3 0-0.4 0 0-0.1 0.1-0.2 0.1-0.3 0.1-0.6 0.2-1.1 0.3-1.7 0.1-0.5 0.3-1 0.4-1.6 0 0-0.1 0-0.1 0 -0.2 0-0.3 0-0.5 0 0.1-0.2 0.1-0.4 0.2-0.5 0.2-0.4 0.4-0.7-0.1-1 0 0 0.1-0.3 0.1-0.5 0.1-0.2 0.2-0.5-0.2-0.5 -0.1 0-0.3-0.1-0.4-0.2 -0.3-0.7-0.7-0.3-1.2-0.3 -0.7 0-1.4 0-2 0 0-0.1 0-0.1 0-0.2 0.2 0 0.4 0 0.7-0.1 0.3 0 0.6 0.1 0.7-0.4 0-0.2 0.5-0.3 0.8-0.3 0.5 0 0.8-0.4 0.9-0.7 0.3-0.8 1.1-0.9 1.7-1.1 0.5-0.1 0.5-0.1 0.1-0.6 0.7 0 1.4-0.1 2.1 0 0.8 0.2 1.6 0.6 2.2 1.3 0.3 0.3 0.5 0.7 0.8 0.9 0.2 0.1 0.7-0.1 0.8-0.3 0.2-0.3 0.4-0.2 0.7-0.2 0.2 0 0.5 0 0.7-0.1 0.5-0.2 0.7 0.4 1.1 0.5 -0.1 0.3-0.1 0.8-0.3 0.9 -0.2 0.1-0.7-0.1-0.9-0.2 -0.2-0.1-0.2-0.5-0.3-0.8 -0.3 0.6-0.5 1.1-0.7 1.7 -0.1 0.1-0.2 0.3-0.3 0.2 -0.1-0.1-0.3-0.2-0.4-0.3 -0.1-0.6-0.9-0.9-1.4-0.6 -0.1 0.1-0.3 0.1-0.4 0.2 -0.1 0-0.2 0.1-0.2 0.2 0 0.1 0.1 0.2 0.1 0.2 0.8 0 1 0.7 1.5 1.1 0.5 0.4 0.9 0.5 1.5 0.3 0.2-0.1 0.6 0 0.8 0 0.4-0.1 0.6 0.1 0.7 0.5 0 0 0.2 0.1 0.2 0 0.1-0.1 0.2-0.2 0.2-0.3 0.1-0.1 0.1-0.3 0.1-0.5 0 0 0 0 0 0 1.2 0.2 1.1 0.2 1.2-1.1 0-0.4-0.1-0.6-0.3-0.8 -0.2-0.3-0.6-0.4-0.2-0.8 -0.1-0.1-0.2-0.2-0.3-0.2 -0.1-0.1-0.3-0.1-0.5-0.1 -0.5-0.1-0.6-0.4-0.5-0.9 0.1-0.2 0.1-0.4-0.3-0.5C33.9 9.5 33.7 9 34 8.4c0.1-0.2 0.5-0.2 0.8-0.2 0.4 0 0.8 0 1.2 0 0.7 0 1 0.7 1.4 1.1 0.1 0.1 0.3 0.2 0.5 0.3 0.3 0.1 0.7 0.2 0.8 0.4 0.3 0.4 0.4 1 0.6 1.5 0.3 0.6 0.5 1.2 0.8 1.9 0 0.1 0.2 0.2 0.1 0.2 -0.2 0.6 0.2 0.9 0.8 1.2 -0.9 0-0.6 0.6-0.8 1 -0.3 0.8 0.8 0.4 0.7 1 -0.1 0-0.2 0-0.3 0 -0.2-0.2-0.4-0.3-0.5 0 -0.1 0.2-0.1 0.7 0 0.7 1 0.3 0.2 0.9 0 1.1 -0.2 0.4-0.1 0.6 0.1 0.8 0.1 0.1 0.4 0.1 0.5 0 0.2-0.3 0.2-0.6 0.4-0.8 0.1-0.1 0.3-0.2 0.4-0.1 0.4 0.1 0.7 0.5 0.8-0.2 0 0 0.1-0.1 0.2-0.1 0.5 0.3 0.8-0.1 1.1-0.4 0.2-0.2 0.3-0.5 0.5-0.7 0 0 0.1 0 0.1 0 0-0.8 0.6-0.3 1-0.6 -0.1-0.1-0.2-0.4-0.3-0.4 -0.9-0.4-1.1-1.2-1.5-2 -0.3-0.7-0.5-1.3-0.7-2 -0.1-0.5-0.2-1-0.3-1.4 -0.1-0.4-0.2-0.8-0.3-1.2 0-0.1 0-0.2 0-0.3 0.1 0 0.3-0.1 0.3 0 0.2 0.2 0.4 0.3 0.6 0.5 1.3 1.2 2.5 2.6 3.5 4.1 0.3 0.4 0.5 0.9 0.9 1.5 0.1-0.5 0.1-1 0.6-1.1 0 0 0.1-0.4 0-0.6 0-0.1-0.3-0.2-0.5-0.4 0.5 0 0.9 0 1.3 0 1.2 0 1.5-0.3 1.8-1.5 0.1-0.3 0.3-0.6 0.4-0.9 0 0 0.2-0.1 0.2 0 0.1 0 0.1 0.1 0.1 0.2 0.1 0.9 0.3 1.9 0.2 2.8 -0.2 1-0.7 1.9-1.1 2.8 -0.2 0.5-0.5 1.1-0.5 1.7 0 0.3 0.4 0.7 0.7 1 0.4 0.5 0.8 1 1.2 1.5 0.7 0.9 1.3 1.7 2 2.6 0.5 0.6 0.9 1.2 1.3 1.8 0.2 0.2 0.4 0.5 0.6 0.7 0.5 0.4 1 0.7 1.5 1.1 0 0 0.1 0 0.1 0 -0.2 1 0.8 0.8 1.2 1.1 0.3 0.2 0.7 0.2 1 0.5 -0.2 0-0.4 0-0.5 0.1 -0.1 0-0.2 0.1-0.4 0.1 0.1 0.1 0.1 0.3 0.2 0.4 0.4 0.5 0.8 1 1.2 1.6 0.1 0.1 0.1 0.2 0.1 0.3 0.1 0.5 0.4 0.6 0.8 0.3 0.2-0.1 0.5 0.1 0.7 0.1 0.4 0.1 0.1 0.4 0 0.5 -0.1 0.3-0.3 0.7-0.2 0.8 0.3 0.4 0.5 1.1 1.2 1 0.3 0 0.5 0 0.8-0.1 0.1 0 0.3-0.2 0.3-0.4 0-0.3 0-0.5-0.1-0.8 0 0-0.2 0-0.3 0 -0.1 0-0.3 0.1-0.3 0.1 -0.1-0.2-0.1-0.3-0.2-0.5 0.1 0 0.3-0.1 0.4-0.1 0.7 0.1 1.3 0 1.8-0.3 0.8-0.5 1.7-0.9 2.5-1.4 0.1 0 0.1-0.4 0-0.4 -0.5-0.1-0.4-0.4-0.1-0.6 0.3-0.3 0.7-0.6 1.1-0.7 0.4-0.1 0.5-0.3 0.5-0.6 0-0.7 0.2-1.3 0.7-1.9 0.6-0.7 0.6-0.9 0.1-1.8 0-0.1 0.1-0.4 0.1-0.4 0.5-0.2 0.6-0.3 0.3-0.8 0.2-0.1 0.4-0.2 0.6-0.3 -0.2-0.3-0.3-0.6-0.6-0.8 -0.3-0.3-0.8-0.4-1.2-0.7 -0.8-0.5-1-0.8-0.6-1.8 0 0 0 0 0 0 0.2 0.2 0.5 0.4 0.7 0.6 0.1 0.1 0.3 0.2 0.4 0.3 0.1-0.2 0.3-0.4 0.3-0.5 -0.1-0.5 0-0.7 0.5-0.5 0.4 0.1 0.4-0.2 0.4-0.4l0 0c0.6 0.1 1.1 0.1 1.4-0.6 0.2-0.4-0.2-0.6-0.1-1 0.2 0 0.5 0 0.8 0 0.2 0 0.4-0.2 0.7-0.3 -0.1-0.1-0.3-0.2-0.4-0.4 -0.1-0.1-0.1-0.1-0.2-0.2 0.8-0.3 0.9-0.5 0.8-1.1 0.2 0.1 0.4 0.2 0.6 0.2 0.2 0.1 0.4 0.1 0.6 0.2 0.1-0.3 0.4-0.7 0.2-1 -0.1-0.2-0.6-0.3-1-0.4 0.6-0.1 1.1-0.3 1.7-0.3 0.9-0.1 1.1-0.2 1.1-1.1 0-0.7 0-0.7 0.4-1.1 0.3 0.6 0.7 1.1 0.9 1.7 0.2 0.7 0.3 1.4 0.2 2.1 -0.1 1.6-0.2 3.1-0.5 4.7 -0.1 0.9-0.5 1.7-0.8 2.5 -0.4 1.3-0.8 2.5-1.3 3.8 -0.2 0.5-0.5 0.9-0.7 1.3 -0.4 0.9-0.3 1.8 0.3 2.6 0.1 0.1 0.1 0.3 0 0.5 -0.2 0.5-0.5 1.1-0.8 1.6 -0.2 0.2-0.1 0.9-0.8 0.6 -0.1-0.1-0.3 0.1-0.5 0.1 0 0.1 0.1 0.3 0.1 0.4 0.5 1 0.3 1.9 0 2.9 -0.1 0.2-0.1 0.5-0.1 0.7 -0.7-0.2-0.5 0.5-0.7 0.9 -0.2 0.5-0.3 1.1-0.3 1.6 0 0.3 0.2 0.6 0.3 1.1 -0.6-0.4-0.8-0.4-0.8 0.3 0 0.2-0.3 0.4-0.5 0.1 -0.6-0.5-1-0.5-1.6 0.2 -0.1-0.2-0.2-0.3-0.3-0.5 0-0.1-0.2-0.2-0.2-0.1 -0.1 0.1-0.2 0.2-0.2 0.2 0 0.3 0.1 0.7 0.2 1 0.1 0.2 0.2 0.3 0.4 0.5 -0.3 0.1-0.6 0.2-0.8 0.3 -0.1 0.1-0.3 0.4-0.2 0.5 0.4 0.9 0.9 1.7 1.7 2.3 0.6 0.5 1.1 1.2 1.6 1.7 0.6 0.6 1.3 1.1 2.2 1.4 -0.2 0-0.3 0-0.5 0.1 -0.1 0-0.2 0-0.3 0 0 0.1 0 0.3 0.1 0.3 0.4 0.2 0.8 0.5 1.3 0.6 0.5 0.1 1 0.1 1.3 0.6 0 0.1 0.2 0.1 0.3 0.3 0-0.3 0-0.5 0-0.7 0-0.1 0.1-0.3 0.2-0.4 0.1 0.1 0.3 0.3 0.3 0.4 0 0.4 0 0.8 0 1.3 0 0.7 0.5 1.2 1.2 1.1 0.2 0 0.5 0.1 0.2-0.3 0 0 0.2-0.3 0.3-0.4 0.1 0.1 0.4 0.2 0.4 0.4 0 0.5-0.1 0.9 0 1.4 0.1 0.7 0.4 1.4 0.6 2.1 0.2 0.7 0.6 1.4 0.9 2.1 0.1 0.3 0.4 0.5 0.5 0.6 0.2-0.2 0.4-0.3 0.5-0.5 0.2 0.2 0.4 0.4 0.5 0.6 0.2 0.4 0.4 0.8 0.5 1.2 0.1 0.6 0.4 0.8 0.9 1 1 0.3 1.5 0.9 2 1.8 0.4 0.6 1 1.1 1.7 1.3 0.3 0.1 0.6 0 1-0.1 0.2 0.3-0.4 1.5 0.8 1 0 0.3 0 0.7 0.1 0.8 0.4 0.3 1 0.2 1.4-0.1 0.6-0.5 1.1-1 2-1 0.5 0 0.9 0.2 1.2 0.5 0.1 0.1 0 0.5-0.1 0.5 -0.3 0.2-0.7 0.2-1.1 0.4 0.4 0.3 0.8 0.6 1.2 0.9 0.1 0.1 0.1 0.4 0 0.6 0 0.2-0.2 0.3-0.3 0.4 0.2 0 0.4 0.1 0.6 0.1 0.1 0 0.2 0 0.2 0 0 0.1 0 0.1 0 0.1 -0.7 0.9-0.5 0.9 0.1 1.8 0.1 0.2 0.3 0.4 0.5 0.6 0 0 0.1 0.1 0.2 0.1 0.5-0.4 0.4 0 0.3 0.3 0 0.4-0.1 0.8 0 1.3 0 0.4 0.2 0.6 0.6 0.3 0.5-0.3 0.7-0.1 0.7 0.4 0 0.4 0 0.6 0.5 0.7 0.3 0 0.3 0.5-0.2 0.8 -0.2 0.1-0.4 0.2-0.5 0.3 0.2 0.3 0.4 0.5 0.7 0.8 0.1 0.1 0.2 0.3 0.4 0.3 0.1 0 0.3-0.2 0.4-0.3 0.1-0.1 0.2-0.1 0.3-0.1 0 0.2 0.1 0.3 0.1 0.5 -0.1 0.6-0.3 1.2-0.4 1.9 -0.1 0.9-0.1 0.9-1.1 0.9 -0.3 0-0.5 0-0.8 0 -0.4 0-0.7-0.1-0.9-0.4 -0.5-0.6-1.1-1.1-1.7-1.6 -0.7-0.5-1.4-1-2.1-1.5 -1.5-1.2-2.9-2.3-4.3-3.5 -0.5-0.4-1.1-0.8-1.6-1.3 -0.6-0.5-1.2-1-1.7-1.6 -0.4-0.4-0.8-0.8-1.1-1.3 -0.5-0.6-1.1-0.9-1.9-1.2 -0.7-0.3-1.3-0.2-1.9-0.1 -0.1 0-0.3-0.1-0.3-0.2 -0.3-1-1.3-1.4-2-1.9 -0.6-0.4-0.5-0.7-0.3-1.1 0.2-0.4 0-0.4-0.3-0.4 -0.3 0-0.7 0-1 0 -0.2 0-0.5-0.2-0.7-0.3C74 62.2 73.9 62 73.8 62c-0.9 0.1-1.3-0.8-2.1-1 -0.3-0.1-0.6-0.2-0.9-0.4 0.6-0.5 0.1-0.7-0.3-1 -0.8-0.5-1.5-1-2.2-1.4 -0.4-0.2-0.9-0.4-1.4-0.5 0.3-0.3 0.2-0.6-0.1-0.8 -0.2-0.1-0.3-0.3-0.4-0.5 0.2-0.1 0.5-0.2 0.7-0.4 0.1 0 0.1 0 0.3 0 -0.5-0.4 0-1.3-0.8-1.4 -0.2 0.2-0.4 0.3-0.5 0.4 0-0.1-0.2-0.2-0.1-0.3 0.1-0.1 0.2-0.3 0.3-0.3 0.2 0 0.4 0 0.5 0 0.2 0 0.3 0 0.5 0 -0.1-0.2-0.2-0.5-0.3-0.5 -0.4-0.1-0.9 0-1-0.6 -0.1 0-0.2 0-0.3 0.1 -0.1 0.1-0.2 0.3-0.4 0.5 -0.3-0.8-0.5-1.5-0.8-2.3 -0.1-0.3-0.2-0.5-0.3-0.8 -0.1-0.1-0.3-0.2-0.3-0.2 -0.3 0.2-0.5 0.4-0.8 0.5 -0.3 0.1-0.7 0.1-1 0.1 -0.2 0.1-0.5 0.2-0.7 0.3 0 0.1 0 0.1 0 0.2 -0.2-0.1-0.3-0.3-0.5-0.4 0 0.1-0.1 0.1-0.1 0.1 0 0.3-0.1 0.5-0.1 0.8 -0.1-0.2-0.1-0.5-0.2-0.7 0-0.1-0.1-0.2-0.2-0.2 -0.1 0-0.3 0.1-0.3 0.2 0 0.5-0.4 0.5-0.6 0.7 -0.1 0.1-0.1 0.4-0.2 0.6 0 0.1 0.1 0.2 0.1 0.3 -0.1 0-0.3 0-0.4-0.1 -0.3-0.1-0.6-0.3-0.9-0.5 0 0.1-0.1 0.1-0.1 0.2 0.3 0.3 0.5 0.6 0.8 0.9 0.1 0.1 0.1 0.2 0.1 0.3 -0.1 0-0.2 0-0.3 0 -0.6-0.3-0.8-0.3-1.1 0.4 -0.4 0.9-0.7 1.9-1.2 2.8 -0.5 0.9-0.8 1.9-0.7 3 0 0.2 0.2 0.4 0.2 0.6l0 0c-0.9 0-0.9 0-1 0.8 -0.1 0.7-0.1 1.4-0.2 2.1 -0.1 0.6-0.1 1.3-0.3 1.9 -0.1 0.3-0.3 0.8-0.9 0.7 -0.1 0-0.3 0.2-0.4 0.3 -0.2 0.2-0.2 0.5-0.4 0.6 -0.2 0.3-0.3 0.5-0.2 0.9 0.1 0.5-0.1 1.1-0.3 1.7 -0.2 0.5-0.5 1-0.8 1.4 -0.3 0.4-0.7 0.7-1 1.1 -0.1 0.1-0.2 0.3-0.3 0.5 -0.1 0.1-0.2 0.2-0.3 0.3 -0.1-0.1-0.2-0.2-0.2-0.3 -0.1-1.2-0.5-2.4-0.1-3.6 0.3-0.7 0.3-1.5 0.5-2.2 0.1-0.6 0.3-1.2 0.5-1.8 0.1-0.2 0.2-0.4 0.4-0.6 0.4-0.5 0.3-0.8-0.3-1 0.1-0.1 0.3-0.2 0.3-0.3 0.3-0.9 0.5-1.9 0.7-2.8 0.3-1 0.7-2 0.9-3 0.2-0.7 0.1-1.3 0.2-2 0-0.1 0.1-0.2 0.1-0.4 0-0.3 0.1-0.7 0.1-1 -0.1-0.4-0.3-0.8-0.4-1.2 0.1 0 0.1-0.1 0.2-0.1 0.1 0.3 0.3 0.5 0.5 0.9 0.1-0.4 0.2-0.7 0.3-1 0.1-0.3 0.4-0.6 0.6-0.8 0.2-0.3 0.4-0.6-0.1-0.8 -0.1 0-0.2-0.1-0.3-0.2 -0.1-0.2-0.2-0.4-0.2-0.7 0-0.1 0.3-0.1 0.5-0.2 0.3-0.1 0.7 0 0.7-0.1 0.2-0.3 0.2-0.8 0.3-1.2 0 0-0.1-0.1-0.2-0.1 -0.1-0.1-0.3-0.3-0.3-0.4 0.4-1.1 0.9-2.1 1.7-2.9 0.2-0.2 0.6-0.4 0.8-0.7 0.3-0.3 0.4-0.7-0.1-0.9 -0.3-0.2-0.5-0.5-0.7-0.7 0 0 0 0 0.1 0 0.3 0.1 0.6 0.2 0.9 0.3 0.2 0.1 0.5 0.4 0.5 0.4 0.3-0.2 0.6-0.5 0.8-0.8 0.2-0.2 0.3-0.5 0.5-0.7 0.1-0.2 0.2-0.3 0-0.5 -0.1-0.1-0.2-0.3-0.2-0.4 0.1-0.1 0.3-0.3 0.5-0.3 0.2-0.1 0.5-0.1 0.7-0.1 0-0.1 0-0.1 0-0.2 -0.5 0-0.9 0-1.3-0.1 0-0.2 0.2-0.6 0.1-0.7 -0.5-0.5-0.8 0.1-1.2 0.3 -0.2-0.7 0.8-1.6-0.5-2.2 0.3 0 0.4-0.1 0.6-0.1 0.4 0 0.5-0.2 0.2-0.5l0 0c0.5-0.2 0.5-0.2 0.2-0.5 -0.2-0.3-0.5-0.7-0.5-1.1 -0.1-0.7-0.5-0.9-1.2-0.9 0.5-0.3 0.8-0.4 1.2-0.6 0.1-0.1 0.2-0.2 0.2-0.3 -0.1-0.1-0.2-0.2-0.3-0.2 -0.2 0-0.5 0.1-0.7 0.1 -0.3 0-0.7 0.1-1 0.1 0-0.1 0-0.1 0-0.2 0.2-0.1 0.3-0.3 0.5-0.3 0.7 0 0.5-0.3 0.3-0.7 -0.9-1.3-1.7-2.7-2.6-3.9 -0.9-1.2-2-2.3-3.1-3.4 -0.1-0.1-0.3 0-0.5-0.1 0.2-0.3 0.4-0.7 0-1 -0.6-0.6-1.2-1.3-1.8-1.9 -0.3-0.4-0.5-0.2-0.7 0.1 0 0.1-0.1 0.2-0.2 0.3 -0.3 0.3-0.4 1-0.1 1.3 0.2 0.2 0.5 0.5 0.8 0.7 0-0.2 0-0.3 0-0.4 0-0.1-0.2-0.2-0.2-0.3 0-0.1 0-0.2 0.1-0.5 0.5 0.5 0.9 0.9 1.2 1.3 0.2 0.4 0.5 0.4 0.8 0.4 -0.1 0.4-0.3 0.8-0.2 1.2 0.1 0.4 0.3 0.8 0.7 1.1 0.5 0.5 0.9 1.2 0.8 1.8 -0.5-0.4-1.1-0.8-1.6-1.3 -0.6-0.7-1.1-1.5-1.6-2.2 -0.3-0.4-0.6-0.8-0.9-1.2 -0.2-0.2-0.3-0.4-0.5-0.6 -0.3 0.4-0.6 0.8-0.8 1.3 0 0-0.1 0-0.1 0 0 0 0 0 0.1 0.1 -0.4 0.6-0.6 1.3-1.1 1.8 -0.9 0.9-1.6 2-1.8 3.3 -0.1 0.3 0 0.7 0.2 1 0.2 0.4 0.1 0.6-0.1 0.9 -0.4 0.6-1 1.1-1.2 1.8 -0.3 0.7-0.7 0.5-1 0.3 -0.5-0.2-0.4 0.2-0.4 0.3 0 0.4 0.1 0.9 0.1 1.3 0 0.4-0.1 0.8-0.2 1.2 -0.1 0.4-0.4 0.8-0.6 1.2 -0.1 0.1-0.1 0.3-0.2 0.4 -0.5 1 0 1.9 0.4 2.7 0.4 0.8 0.8 1.7 1.2 2.5 0.1 0.2 0.2 0.4 0.4 0.5 0.2 0.2 0.4 0.3 0 0.5 -0.1 0-0.2 0.3-0.1 0.4 0.3 0.3 0.5 0.6 0.9 0.7 0.4 0.2 0.9 0.3 0.9 0.9 0 0.1 0.1 0.2 0.2 0.2 0.1 0 0.2-0.1 0.2-0.2 0 0 0-0.1 0-0.2 0.1-0.2 0.1-0.3 0.2-0.4 0 0 0.2 0 0.2 0 0 0.2 0 0.4-0.1 0.6 -0.2 0.5-0.4 1-0.5 1.5 0 0.2 0.2 0.4 0.4 0.6 0 0 0.3-0.1 0.4-0.2 0.1-0.1 0.3-0.2 0.4-0.2 0.1 0 0.2 0.1 0.2 0.1 0 0.2-0.1 0.5-0.1 0.5 -0.6 0.1-0.5 0.7-0.8 1 0 0.1 0.1 0.3 0.2 0.4 0.1 0.2 0.2 0.3 0.2 0.5 0 0-0.2 0.2-0.3 0.2 -0.9 0-1.2 0.6-1.9 1.2 0.4 0 0.6 0 0.8 0.1 0.2 0.1 0.4 0.2 0.5 0.4 0 0.1-0.1 0.3-0.2 0.5 -0.3 0.3-0.6 0.6-0.2 1.1 0.3 0.4 0.6 0.9 0.5 1.5 0 0.3 0 0.7 0.5 0.9 0.2 0.1 0.2 0.7 0.3 1.1 0.1 0.6 0.1 1.3 0.2 1.9 0 0.3 0.3 0.1 0.4 0.1 0.3 0.3 1 0.4 0.5 1 0 0.1 0 0.2-0.1 0.2 0.2 0 0.3 0.1 0.5 0.1 0 0.1 0 0.1 0 0.1 -0.4 0-0.5 0.1-0.2 0.5 0.3 0.4 0.6 0.6 1.1 0.5 0.5-0.1 0.9 0 1.4-0.1 0.5-0.1 0.7 0.3 1 0.6 0.1 0.1 0.1 0.4 0 0.5 -0.1 0.1-0.3 0.1-0.5 0.1 -0.2 0-0.3-0.1-0.5-0.1 -0.1 0-0.3 0.1-0.5 0.1 0 0.1 0 0.2 0.1 0.3 0.1 0.2 0.3 0.3 0.3 0.5 0 0.2 0.3 0.6-0.2 0.6 -0.5 0-0.6 0.2-0.3 0.6 -0.7 0.2-0.9 0.7-0.7 1.6 0.1 0.4 0 0.6-0.3 0.9 -0.1 0.1-0.2 0.2-0.2 0.3 -0.1 0.1-0.1 0.3-0.2 0.4 0.1 0 0.2 0.1 0.4 0.1 0.2 0 0.3 0 0.6 0.1 -0.6 0.3-0.6 0.7-0.3 1.3 -0.3 0-0.6 0-0.9 0.1 -0.1 0-0.1 0.2-0.2 0.3 0 0.1 0 0.3 0 0.5 0 0.1 0.1 0.3 0.2 0.4 0.1 0.1 0.3 0.1 0.5 0.1 0.1 0 0.1-0.1 0.2-0.1 0 0.1 0 0.2-0.1 0.2 -0.3 0.2-0.6 0.4-1 0.6 -0.5 0.3-0.6 0.8-0.4 1.4 0.2 0.4 0.2 0.7 0.3 1.1 0 0.1-0.1 0.2-0.2 0.3 0-0.1 0-0.2-0.1-0.2 -0.3-0.2-0.6-0.6-1-0.7 -0.8-0.3-1-1.1-1.3-1.8 -0.4-0.8-0.6-1.7-1-2.4 -0.5-0.9-0.8-1.8-1.1-2.7 -0.3-0.8-0.5-1.5-0.7-2.3 -0.1-0.2-0.1-0.5-0.2-0.7 0-0.4 0-0.7-0.3-1 -0.1-0.1 0-0.5-0.1-0.8 0-0.3 0-0.5-0.1-0.8C39.1 62 39 61.4 38.8 61c-0.4-0.6-0.6-1.5-1.6-1.5 -0.1 0-0.3-0.4-0.4-0.6 -0.2-0.4-0.3-0.9-0.5-1.3 -0.2-0.3-0.1-0.5 0.2-0.7 0.4-0.2 0.4-0.4 0-0.7 -0.5-0.3-1.2-0.7-1-1.6 0-0.2-0.2-0.4-0.3-0.6 -0.5-0.6-1.1-1.2-1.7-1.8 -0.1-0.1-0.2-0.4-0.4 0 -0.1 0.2-0.4 0.2-0.6 0.3 -0.1 0.1-0.3 0.3-0.3 0.4 0.2 0.5-0.2 0.7-0.6 0.8 -0.5 0.2-0.9 0.4-0.9 1.1 -0.1-0.4-0.1-0.7-0.2-1.1 -0.2 0.3-0.5 0.5-0.2 0.9 0 0-0.1 0.3-0.1 0.3 -0.3 0.1-0.6 0.2-0.9 0.2 -0.1 0-0.2-0.3-0.2-0.4 0-0.1 0.1-0.2 0.2-0.3 0.1-0.1 0.2-0.1 0.3-0.2 -0.1-0.1-0.3-0.2-0.4-0.2 -0.1-0.1-0.3-0.1-0.3-0.1 -0.1-0.6-0.6-0.7-1-1 -0.2-0.2-0.4-0.4-0.4-0.7 -0.1-0.8-0.2-0.9-1-0.6 -0.1 0-0.2 0.1-0.4 0.1 0.1 0.1 0.2 0.2 0.2 0.3 0 0.1 0.1 0.4 0 0.4 -0.4 0.2-0.9 0.4-1.4 0.6 -0.1 0-0.2-0.1-0.2-0.1 -0.3 0-0.8 0.1-0.8 0.1 0 0.4 0.1 0.9 0.1 1.3 0 0.1 0.1 0.2 0.2 0.3 -0.1 0-0.2 0-0.3 0 -0.1 0-0.3 0-0.4 0 -0.6 0.4-1.1 0.3-1.7 0 -0.1 0-0.3 0-0.4 0.1 -0.3 0.3-0.5 0.6-0.8 0.9 -0.3 0.3-0.5 0.6-0.4 1 0 0.1-0.1 0.2-0.1 0.2 0-0.1-0.1-0.1-0.1-0.2 -0.1-0.1-0.3-0.3-0.4-0.4 -0.2-0.1-0.4 0-0.6 0 0.1 0.3 0.2 0.6 0.3 0.8 -0.3 0.2-0.6 0.3-0.8 0.6 -0.5 0.5-0.9 1.1-1.3 1.6 -0.1 0.2-0.2 0.5-0.4 0.6 -0.1 0.1 0.1 0.6-0.4 0.4 0 0.2 0 0.5 0.1 0.7 0.3 0.4 0.4 0.9 0.4 1.4 0 0.3-0.2 0.7 0.4 0.8 0 0 0.1 0.6 0 0.8 -0.6 1.2-1.2 2.3-1.9 3.4 -0.2 0.5-0.5 0.9-0.7 1.4 -0.1 0.1-0.1 0.2-0.2 0.3 -0.1-0.1-0.2-0.2-0.2-0.3 0.1-0.4 0.2-0.8 0.3-1.2 0-0.2 0-0.3 0.1-0.5 -0.2 0.1-0.3 0.2-0.5 0.3 -0.4-0.4 0.1-0.8 0.3-1.2 0.2-0.4 0.2-0.6-0.3-0.6 -0.9-0.1-1.3 0.3-1.3 1.2 0 0.2-0.1 0.4-0.2 0.6 -0.2 0.5-0.3 1.1-0.5 1.5C11.5 69.4 11.2 69.8 10.9 70.2 10.9 70.2 10.8 70.2 10.9 70.2 10.8 70.2 10.8 70.2 10.9 70.2zM32.4 49.7c0.6 0.1 0.5-0.4 0.6-0.6 0.1-0.1 0-0.2 0.1-0.4 -0.2 0-0.3 0-0.5 0.1 -0.2 0-0.3 0-0.5 0.1 -0.2 0-0.4 0-0.5 0.1 -0.1 0.2-0.2 0.5 0.3 0.4 0 0 0.1 0.1 0.2 0.2C32.2 49.5 32.3 49.6 32.4 49.7zM33.8 48.6c0-0.1 0-0.1 0-0.2 -0.3-0.2-0.5-0.5-0.8-0.7 -0.2-0.1-0.5 0-0.7 0 0.1 0.2 0.1 0.4 0.2 0.5C32.9 48.4 33.4 48.5 33.8 48.6zM32.3 46.3c-0.2 0.2-0.5 0.3-0.6 0.5 -0.1 0.2 0.1 0.5 0.1 0.8 0 0 0.2 0.1 0.2 0.1 0.1-0.4 0.3-0.8 0.4-1.2C32.5 46.4 32.4 46.3 32.3 46.3z"/><path fill-rule="evenodd" clip-rule="evenodd" fill="#BCD57C" d="M60.8 20c-0.1-0.1-0.2-0.1-0.2-0.2 -0.2-0.7-0.3-1.4-0.5-2.2 0-0.1-0.2-0.2-0.3-0.2 -0.2-0.1-0.4-0.2-0.4-0.2 0.1-0.6-0.5-0.6-0.8-0.9 0 0-0.1-0.1-0.1-0.1 -0.3 0.8-1-0.2-1.4 0.4 -0.4 0.6-0.9 1-1.3 1.6 -0.1 0.1-0.2 0.2-0.3 0.2 -0.1 0-0.3 0-0.4 0 0-0.1 0-0.3 0.1-0.4 0.1-0.2 0.2-0.4 0.4-0.5 0.3-0.3 0.5-0.5-0.1-0.6 0 0-0.1-0.2-0.1-0.2 0.3-0.3-0.1-0.8 0.4-1 0.1-0.1 0.1-0.5 0-0.7 -0.2-0.3-0.1-0.5 0.1-0.8 0.1-0.1 0.1-0.2 0.2-0.3 -0.1 0-0.2 0-0.4 0 -0.1 0-0.3-0.1-0.3-0.2 0-0.2 0-0.5 0.1-0.7 0-0.1 0.1-0.1 0.2-0.1 0.1 0 0.3-0.1 0.4-0.1 0.1 0 0.2-0.2 0.2-0.2 -0.1 0-0.2-0.1-0.3-0.1 -0.2 0-0.4 0-0.6 0 0 0 0-0.1 0-0.1 0.4-0.2 0.9-0.5 1.3-0.5 0.5 0 0.5-0.3 0.4-0.6 0-0.1 0-0.3 0-0.5 0.6 0.4 1.2 0.7 1.8 1 0.1 0.1 0.4 0.1 0.5 0.1 0.4-0.2 0.8-0.5 1.1-0.9 0.3-0.4 0.5-0.9 0.8-1.3 0 0 0 0.2 0.1 0.3 0 0.1 0.1 0.1 0.2 0.1 0-0.1 0-0.1 0-0.2 0.1-0.5 0.4-0.9 0.2-1.4 0 0 0.2-0.1 0.3-0.1 0.6 0.3 0.9 0.2 1.2-0.5 0.2-0.5 1.4-1 1.9-0.8 0.5 0.2 1 0.7 1.7 0.2 0.2-0.1 0.7 0.2 0.9 0.5 1 0.9 1.7 2 2.4 3.2 0.2 0.3 0.5 0.6 0.3 1.1 0 0 0.2 0.2 0.3 0.3 0.4 0.3 0.6 0.5 0.6 1 -0.2-0.1-0.3-0.2-0.5-0.4 -0.2 0.6-0.5 1.2-0.6 1.8 0 0.2 0.3 0.5 0.4 0.7 0.1 0.2 0.2 0.3 0.2 0.5 -0.2 0-0.4 0.2-0.5 0.1 -0.5-0.1-0.5 0.1-0.7 0.5C69.6 17 70 16.9 70.2 17c-0.2 0.3-0.4 0.6-0.6 0.9 -0.5 0.6-1.1 1.1-2 1.1 -0.4 0-0.9 0.2-1.3 0.2 -0.4 0-0.8 0-1.1-0.1 -0.7-0.3-1.3-0.1-2 0.1 0 0-0.1 0-0.1 0 -0.5 0.2-0.5 0.2-0.6-0.2 -0.1 0.3-0.3 0.6-0.4 0.9 -0.1 0.2 0 0.4-0.1 0.6 0 0.1 0 0.2 0 0.3 -0.1-0.1-0.3-0.1-0.3-0.2 -0.1-0.4-0.2-0.7-0.3-1.2C61.1 19.7 61 19.8 60.8 20L60.8 20zM62.4 8.7c-0.1 0.3-0.1 0.6-0.3 0.8 -0.6 0.8-0.4 1.4 0.4 1.9 0.1 0.1 0.3 0.2 0.3 0.3 -0.2 0.4 0.1 0.5 0.3 0.6 0.5 0.4 1.3 0.4 1.7 1 0 0.1 0.3 0.1 0.4 0.1 0-0.1-0.1-0.3-0.1-0.4 0-0.1 0-0.2 0-0.2 0.1-0.1 0.3-0.1 0.4-0.1 0.1 0 0.3 0.2 0.4 0.2 0.3-0.1 0.7 0.4 0.8-0.1 0.1-0.4 0.1-0.9 0-1.3 -0.1-0.3-0.2-0.7-0.7-0.7 -0.2 0-0.4-0.2-0.7-0.4 0.3-0.5-0.1-0.3-0.3-0.3 -0.3 0-0.6 0-1 0 -0.1 0-0.3-0.1-0.3-0.1 0-0.6-0.2-0.5-0.5-0.2 0 0-0.3-0.1-0.4-0.2C62.8 9.2 62.6 8.9 62.4 8.7z"/><path fill-rule="evenodd" clip-rule="evenodd" fill="#BCD57C" d="M21.9 26c0.6-0.1 0.8 0.5 1.3 0.7 0.2 0.1 0.4 0.1 0.7 0.2 -0.3 0.9 0.5 1.5 1 2.2 0.2 0.3 0.1 0.4 0 0.6 -0.1 0.1-0.4 0-0.5-0.1 -0.7-0.6-1.3-1.3-2-1.8 -0.6-0.4-1.2-0.8-1.9-1.1 -0.1-0.1-0.2-0.1-0.4-0.3 0.2 0 0.3-0.1 0.5-0.1 0.4-0.1 0.7 0 0.9 0.4 0.1 0.3 0.3 0.3 0.5 0.1 0 0-0.1-0.2-0.1-0.3C21.9 26.3 21.9 26.1 21.9 26L21.9 26z"/><path fill-rule="evenodd" clip-rule="evenodd" fill="#BCD57C" d="M55.8 60.8c0.1-0.1 0.2-0.2 0.3-0.2 1 0.1 1.1-0.8 1.3-1.4 0.1-0.2 0.2-0.4 0.3-0.6 0 0 0.2-0.1 0.2-0.1 0.1 0.1 0.2 0.2 0.2 0.2 0 0.8 0 1.6-0.4 2.3 -0.3 0.7-0.4 1.5-0.6 2.3 0 0.2-0.1 0.3-0.2 0.5 0 0.1-0.2 0.1-0.3 0.2 0-0.1-0.1-0.2-0.1-0.2 0-0.2 0-0.4 0-0.6 0-0.2-0.1-0.3-0.1-0.5 -0.2 0-0.4 0.1-0.7 0.1 0.1-0.4 0.2-0.8 0.2-1.2 0-0.2-0.1-0.4-0.1-0.6 0 0 0 0 0 0C55.8 60.9 55.8 60.8 55.8 60.8L55.8 60.8zM56.3 62.3C56.3 62.3 56.3 62.3 56.3 62.3c0 0.1 0 0.1 0 0.1 0 0 0 0 0 0C56.4 62.4 56.4 62.3 56.3 62.3z"/><path fill-rule="evenodd" clip-rule="evenodd" fill="#BCD57C" d="M48.9 76.4c0.1 0.3 0.3 0.5 0.4 0.8 0.1 0.1 0.1 0.3 0.1 0.4 -0.2 0-0.3 0-0.5-0.1 -0.4-0.2-0.8-0.5-1.2-0.7 -0.4-0.1-0.4-0.4-0.3-0.7 0-0.1 0.1-0.2 0.2-0.3 0.1 0.1 0.2 0.1 0.2 0.2 0.1 0.1 0.1 0.2 0.1 0.3 0.1 0.2 0.3 0.4 0.4 0.4C48.5 76.8 48.7 76.6 48.9 76.4z"/><path fill-rule="evenodd" clip-rule="evenodd" fill="#BCD57C" d="M38.7 2c0 0.2 0.1 0.6-0.4 0.2 -0.1-0.1-0.2-0.1-0.3 0 -0.3 0-0.6 0-0.6-0.4 0.1-0.3 0.3-0.7 0.6-0.8 0.3-0.1 0.6 0.2 0.8 0.5C38.8 1.6 38.7 1.7 38.7 2z"/><path fill-rule="evenodd" clip-rule="evenodd" fill="#BCD57C" d="M15.3 70.7c-0.2-0.1-0.4-0.1-0.5-0.2 -0.1 0-0.2-0.2-0.1-0.3 0.2-0.3 0.4-0.6 0.7-0.9 0.1-0.1 0.3 0 0.5 0 0 0.1 0 0.3 0 0.4C15.5 70 15.8 70.6 15.3 70.7L15.3 70.7z"/><path fill-rule="evenodd" clip-rule="evenodd" fill="#BCD57C" d="M54 36.9c0.2 0.1 0.3 0.2 0.5 0.3 0.5 0.4 0.9 0.8 1.3 1.2 0.1 0.1 0.1 0.4 0.2 0.6 -0.1-0.1-0.3-0.1-0.4-0.2 -0.6-0.6-1.1-1.1-1.7-1.7C53.9 36.9 53.9 36.9 54 36.9z"/><path fill-rule="evenodd" clip-rule="evenodd" fill="#BCD57C" d="M39.7 4.4c-0.2-0.1-0.5-0.2-0.7-0.3 -0.1-0.1-0.2-0.2-0.2-0.3 0.1 0 0.2-0.1 0.4-0.1 0.2-0.1 0.3-0.2 0.5-0.2 0.7-0.2 1 0 1.5 0.7 -0.3-0.2-0.5-0.3-0.7-0.4 -0.2-0.1-0.5-0.1-0.7-0.1C39.7 3.9 39.7 4.1 39.7 4.4 39.7 4.4 39.7 4.4 39.7 4.4z"/><path fill-rule="evenodd" clip-rule="evenodd" fill="#BCD57C" d="M10.2 13.5c-0.3 0.2-0.5 0.4-0.7 0.4C9.3 14 9.1 14 8.7 14c0.2-0.4 0.3-0.7 0.5-1C9.5 13.1 9.8 13.3 10.2 13.5z"/><path fill-rule="evenodd" clip-rule="evenodd" fill="#BCD57C" d="M19.4 27.9c-0.4-0.2-0.7-0.4-1-0.5 0.2-0.2 0.4-0.4 0.6-0.6 0.2 0.2 0.5 0.4 0.6 0.7C19.7 27.5 19.5 27.7 19.4 27.9z"/><path fill-rule="evenodd" clip-rule="evenodd" fill="#BCD57C" d="M58.8 64.7c-0.3 0.2-0.4 0.5-0.6 0.5 -0.1 0-0.5-0.3-0.5-0.3 0.2-0.3 0.4-0.6 0.6-0.9C58.4 64.2 58.5 64.4 58.8 64.7z"/><path fill-rule="evenodd" clip-rule="evenodd" fill="#BCD57C" d="M11.1 14.1c0.3 0.1 0.6 0.3 0.8 0.4 0.1 0 0.1 0.1 0.2 0.1 -0.1 0.1-0.1 0.1-0.2 0.1 -0.3 0-0.5 0-0.8 0 -0.2 0-0.5-0.1-0.7-0.1 0.2-0.2 0.4-0.4 0.5-0.6l0 0C11 14.1 11 14.1 11.1 14.1 11.1 14.1 11.1 14.1 11.1 14.1L11.1 14.1z"/><path fill-rule="evenodd" clip-rule="evenodd" fill="#BCD57C" d="M40.7 6.9c-0.2-0.2-0.4-0.3-0.5-0.5 0-0.1 0.2-0.4 0.3-0.4 0.3 0.1 0.6 0.2 0.8 0.3C41.2 6.5 41 6.6 40.7 6.9z"/><path fill-rule="evenodd" clip-rule="evenodd" fill="#BCD57C" d="M76.4 67c-0.2 0.1-0.3 0.2-0.5 0.2 -0.1 0-0.3 0.1-0.3 0 -0.1-0.1-0.2-0.3-0.3-0.5 0 0 0.2-0.2 0.3-0.2C75.9 66.6 76.3 66.4 76.4 67z"/><path fill-rule="evenodd" clip-rule="evenodd" fill="#BCD57C" d="M72.8 66.7c0.2-0.2 0.3-0.5 0.5-0.7 0.1-0.1 0.3-0.2 0.4-0.1 0.1 0 0.3 0.2 0.3 0.3 0 0.2-0.2 0.4-0.3 0.5C73.4 66.8 73.1 66.7 72.8 66.7z"/><path fill-rule="evenodd" clip-rule="evenodd" fill="#BCD57C" d="M45.1 37.6c-0.3-0.1-0.6-0.1-0.8-0.3 -0.2-0.1-0.2-0.4-0.3-0.6 0.2 0 0.4 0 0.6 0 0.2 0.1 0.5 0.3 0.3 0.6C44.9 37.4 45 37.5 45.1 37.6z"/><path fill-rule="evenodd" clip-rule="evenodd" fill="#BCD57C" d="M77.6 33.3c-0.2-0.3-0.3-0.4-0.3-0.6 0-0.1 0.2-0.3 0.3-0.4 0.2 0.2 0.4 0.4 0.6 0.6C78 33 77.8 33.1 77.6 33.3z"/><path fill-rule="evenodd" clip-rule="evenodd" fill="#BCD57C" d="M44.6 34.1c0.1 0.3 0.2 0.6 0.3 0.9 -0.2 0-0.5 0.1-0.6 0 -0.5-0.3 0.2-0.5 0.1-0.8C44.5 34.2 44.6 34.1 44.6 34.1z"/><path fill-rule="evenodd" clip-rule="evenodd" fill="#BCD57C" d="M13.3 15c0.3 0.4-0.1 0.5-0.3 0.7 -0.1 0-0.3-0.1-0.4-0.2 0.1-0.1 0.1-0.4 0.2-0.4C12.9 15 13.1 15 13.3 15L13.3 15z"/><path fill-rule="evenodd" clip-rule="evenodd" fill="#BCD57C" d="M78.7 34.8c-0.1 0.1-0.1 0.2-0.1 0.2 -0.1 0-0.3 0.1-0.4 0 -0.3-0.1-0.5-0.3-0.7-0.4 0.1-0.1 0.3-0.2 0.4-0.2C78.1 34.5 78.4 34.7 78.7 34.8z"/><path fill-rule="evenodd" clip-rule="evenodd" fill="#BCD57C" d="M72.2 42.4c-0.1 0.2-0.2 0.3-0.3 0.5 -0.1-0.2-0.2-0.4-0.2-0.7 0-0.1 0.1-0.2 0.2-0.3C72 42.1 72.1 42.2 72.2 42.4z"/><path fill-rule="evenodd" clip-rule="evenodd" fill="#BCD57C" d="M48.4 74.8c0.6-0.2 0.9-0.1 1.1 0.2 0 0.1 0 0.2-0.1 0.3C49.1 75.2 48.8 75 48.4 74.8z"/><path fill-rule="evenodd" clip-rule="evenodd" fill="#BCD57C" d="M58 37.6c-0.3 0-0.7 0-0.9-0.4 0-0.1 0-0.2 0-0.3 0.1 0 0.2 0.1 0.2 0.1C57.6 37.2 57.8 37.4 58 37.6L58 37.6z"/><path fill-rule="evenodd" clip-rule="evenodd" fill="#BCD57C" d="M62.5 52.5c0 0.4 0 0.8 0 1.1 -0.6-0.3-0.1-0.7-0.2-1.1C62.4 52.5 62.4 52.5 62.5 52.5z"/><path fill-rule="evenodd" clip-rule="evenodd" fill="#BCD57C" d="M60.9 20c0.1 0.2 0.2 0.5 0.3 0.7 -0.1 0-0.2 0-0.3 0.1C60.9 20.5 60.9 20.2 60.9 20 60.8 20 60.9 20 60.9 20z"/><path fill-rule="evenodd" clip-rule="evenodd" fill="#BCD57C" d="M39.8 4.4c0.1 0.1 0.3 0.3 0.4 0.4 0 0 0 0.1-0.1 0.1C40 4.7 39.8 4.6 39.8 4.4 39.7 4.4 39.7 4.4 39.8 4.4z"/><path fill-rule="evenodd" clip-rule="evenodd" fill="#BCD57C" d="M11.1 13.9c0.1-0.1 0.1-0.1 0.2-0.2 0 0 0.1 0.1 0.1 0.1C11.3 13.9 11.2 13.9 11.1 13.9L11.1 13.9z"/><path fill-rule="evenodd" clip-rule="evenodd" fill="#BCD57C" d="M56.3 43.2c-0.1 0-0.1-0.1-0.2-0.1 0 0 0-0.1 0.1-0.1C56.2 43 56.2 43.1 56.3 43.2 56.3 43.1 56.3 43.2 56.3 43.2z"/><path fill-rule="evenodd" clip-rule="evenodd" fill="#BCD57C" d="M71.2 18.8c-0.1 0-0.1-0.1-0.2-0.1 0 0 0-0.1 0.1-0.1C71.1 18.6 71.2 18.7 71.2 18.8L71.2 18.8z"/><path fill-rule="evenodd" clip-rule="evenodd" fill="#BCD57C" d="M32.3 13.4c0.1 0 0.1 0 0.2 0.1 0 0 0 0.1 0 0.1C32.4 13.5 32.3 13.5 32.3 13.4 32.2 13.4 32.3 13.4 32.3 13.4z"/><path fill-rule="evenodd" clip-rule="evenodd" fill="#BCD57C" d="M24.4 43c-0.1 0-0.1-0.1-0.2-0.1C24.3 43 24.4 43 24.4 43 24.4 43 24.4 43 24.4 43z"/><path fill-rule="evenodd" clip-rule="evenodd" fill="#BCD57C" d="M35.2 14.1C35.2 14 35.2 14 35.2 14.1 35.2 14 35.2 14 35.2 14.1 35.3 14 35.3 14.1 35.2 14.1z"/><path fill-rule="evenodd" clip-rule="evenodd" fill="#BCD57C" d="M15.3 70.7C15.3 70.7 15.4 70.7 15.3 70.7 15.4 70.7 15.4 70.7 15.3 70.7 15.3 70.7 15.3 70.7 15.3 70.7L15.3 70.7z"/><path fill-rule="evenodd" clip-rule="evenodd" fill="#BCD57C" d="M11 14.1c0 0 0.1-0.1 0.1-0.1l0 0c0 0 0 0.1 0 0.1l0 0C11.1 14.1 11 14.1 11 14.1L11 14.1z"/><path fill-rule="evenodd" clip-rule="evenodd" fill="#BCD57C" d="M32.2 13.5C32.2 13.4 32.2 13.4 32.2 13.5 32.2 13.4 32.2 13.4 32.2 13.5 32.3 13.4 32.2 13.4 32.2 13.5z"/><path fill-rule="evenodd" clip-rule="evenodd" fill="#BCD57C" d="M13.3 15C13.3 15 13.3 15 13.3 15 13.3 15 13.3 15 13.3 15 13.3 15 13.3 15 13.3 15L13.3 15z"/><path fill-rule="evenodd" clip-rule="evenodd" fill="#BCD57C" d="M55.8 60.9c0 0-0.1 0-0.1 0C55.7 60.9 55.7 60.9 55.8 60.9 55.8 60.9 55.8 60.9 55.8 60.9z"/><path fill-rule="evenodd" clip-rule="evenodd" fill="#BCD57C" d="M68.8 19.4C68.8 19.4 68.8 19.3 68.8 19.4 68.8 19.3 68.8 19.3 68.8 19.4 68.8 19.4 68.8 19.4 68.8 19.4z"/><path fill-rule="evenodd" clip-rule="evenodd" fill="#BCD57C" d="M17.5 49.3C17.5 49.3 17.4 49.3 17.5 49.3 17.5 49.3 17.5 49.3 17.5 49.3 17.5 49.3 17.5 49.3 17.5 49.3z"/><path fill-rule="evenodd" clip-rule="evenodd" fill="#BCD57C" d="M21.9 26C21.8 26 21.8 26 21.9 26 21.8 26 21.8 26 21.9 26 21.8 26 21.8 26 21.9 26L21.9 26z"/><path fill-rule="evenodd" clip-rule="evenodd" fill="none" d="M50.2 25.5c-0.4 0-0.6-0.1-0.8-0.4 -0.3-0.5-0.8-0.8-1.2-1.3 0 0.2-0.1 0.4-0.1 0.5 0 0.1 0.2 0.2 0.2 0.3 0 0.1 0 0.3 0 0.4 -0.3-0.2-0.5-0.5-0.8-0.7 -0.3-0.3-0.2-1 0.1-1.3 0.1-0.1 0.2-0.2 0.2-0.3 0.2-0.4 0.3-0.5 0.7-0.1 0.6 0.7 1.2 1.3 1.8 1.9C50.6 24.9 50.4 25.2 50.2 25.5L50.2 25.5z"/><path fill-rule="evenodd" clip-rule="evenodd" fill="none" d="M32.4 49.7c-0.1-0.1-0.2-0.2-0.3-0.3 -0.1-0.1-0.2-0.2-0.2-0.2 -0.4 0.1-0.3-0.2-0.3-0.4 0-0.1 0.3-0.1 0.5-0.1 0.2 0 0.3 0 0.5-0.1 0.2 0 0.3 0 0.5-0.1 0 0.1 0 0.3-0.1 0.4C32.9 49.3 33 49.8 32.4 49.7z"/><path fill-rule="evenodd" clip-rule="evenodd" fill="none" d="M33.8 48.6c-0.4-0.1-0.9-0.2-1.3-0.3 -0.1 0-0.1-0.3-0.2-0.5 0.2 0 0.5-0.1 0.7 0 0.3 0.2 0.5 0.4 0.8 0.7C33.8 48.5 33.8 48.5 33.8 48.6z"/><path fill-rule="evenodd" clip-rule="evenodd" fill="none" d="M32.3 46.3c0.1 0.1 0.2 0.1 0.2 0.1 -0.1 0.4-0.3 0.8-0.4 1.2 0 0-0.2 0-0.2-0.1 -0.1-0.3-0.2-0.5-0.1-0.8C31.8 46.6 32.1 46.5 32.3 46.3z"/><path fill-rule="evenodd" clip-rule="evenodd" fill="none" d="M10.9 70.2C10.8 70.2 10.8 70.2 10.9 70.2 10.8 70.2 10.9 70.2 10.9 70.2 10.9 70.2 10.9 70.2 10.9 70.2z"/><path fill-rule="evenodd" clip-rule="evenodd" fill="none" d="M36.8 19.9C36.8 19.8 36.8 19.8 36.8 19.9 36.8 19.8 36.8 19.8 36.8 19.9 36.9 19.8 36.8 19.9 36.8 19.9z"/><path fill-rule="evenodd" clip-rule="evenodd" fill="none" d="M46 25.7C46 25.6 45.9 25.6 46 25.7 46 25.6 46 25.6 46 25.7 46 25.6 46 25.7 46 25.7z"/><path fill-rule="evenodd" clip-rule="evenodd" fill="none" d="M62.4 8.7c0.2 0.3 0.4 0.5 0.6 0.8 0.1 0.1 0.3 0.2 0.4 0.2 0.3-0.2 0.6-0.3 0.5 0.2 0 0 0.2 0.1 0.3 0.1 0.3 0 0.6 0 1 0 0.2 0 0.6-0.1 0.3 0.3 0.2 0.1 0.4 0.4 0.7 0.4 0.5 0 0.6 0.4 0.7 0.7 0.1 0.4 0.1 0.9 0 1.3 -0.1 0.5-0.5 0.1-0.8 0.1 -0.1 0-0.2-0.2-0.4-0.2 -0.1 0-0.3 0-0.4 0.1 0 0 0 0.2 0 0.2 0 0.1 0 0.3 0.1 0.4 -0.1 0-0.4 0-0.4-0.1 -0.4-0.7-1.1-0.6-1.7-1 -0.2-0.1-0.5-0.2-0.3-0.6 0 0-0.1-0.2-0.3-0.3 -0.8-0.5-1-1.1-0.4-1.9C62.3 9.3 62.3 9 62.4 8.7zM63.4 10.8c0 0-0.1 0-0.1 0C63.3 10.8 63.4 10.8 63.4 10.8c-0.2 0.1-0.4 0.2-0.6 0.3 0.4 0.1 0.8 0.3 1.2 0.3 0.2 0 0.4 0 0.6-0.1 0.2-0.2 0.4-0.5 0.6-0.8 -0.2 0-0.5 0.1-0.7 0C63.9 10.2 63.7 10.4 63.4 10.8 63.5 10.8 63.4 10.8 63.4 10.8z"/><path fill-rule="evenodd" clip-rule="evenodd" fill="none" d="M56.3 62.3c0 0 0 0.1 0 0.1 0 0 0 0 0 0C56.3 62.4 56.3 62.4 56.3 62.3 56.3 62.3 56.3 62.3 56.3 62.3z"/><path fill-rule="evenodd" clip-rule="evenodd" fill="none" d="M11 14.1c0 0 0.1 0 0.1 0C11.1 14.1 11.1 14.1 11 14.1 11 14.1 11 14.1 11 14.1z"/><path fill-rule="evenodd" clip-rule="evenodd" fill="#BCD57C" d="M63.4 10.8C63.4 10.8 63.5 10.8 63.4 10.8c0.3-0.3 0.5-0.6 1-0.3 0.2 0.1 0.5 0 0.7 0 -0.2 0.3-0.3 0.6-0.6 0.8 -0.1 0.1-0.4 0.2-0.6 0.1 -0.4-0.1-0.7-0.2-1.2-0.3C63 11 63.2 10.9 63.4 10.8 63.4 10.8 63.4 10.8 63.4 10.8z"/><path fill-rule="evenodd" clip-rule="evenodd" fill="#BCD57C" d="M63.4 10.8C63.4 10.8 63.3 10.8 63.4 10.8 63.3 10.7 63.4 10.8 63.4 10.8 63.4 10.8 63.4 10.8 63.4 10.8z"/></g></g></svg>