<?xml version="1.0" encoding="utf-8"?>
<!-- Generator: Adobe Illustrator 16.0.4, SVG Export Plug-In . SVG Version: 6.00 Build 0)  -->
<!DOCTYPE svg PUBLIC "-//W3C//DTD SVG 1.1//EN" "http://www.w3.org/Graphics/SVG/1.1/DTD/svg11.dtd">
<svg version="1.1" id="Layer_1" xmlns="http://www.w3.org/2000/svg" xmlns:xlink="http://www.w3.org/1999/xlink" x="0px" y="0px"
	 width="100px" height="100px" viewBox="0 0 100 100" enable-background="new 0 0 100 100" xml:space="preserve">
<path fill="#BF4385" d="M48.669,22.133c-6.811,0-12.333,5.521-12.333,12.333c0,6.81,5.522,12.331,12.333,12.331
	c6.81,0,12.333-5.521,12.333-12.331C61.002,27.654,55.479,22.133,48.669,22.133z M51.634,95.484
	c1.952-22.256,26.442-42.198,26.442-61.55c0-15.955-13.165-28.875-29.407-28.875c-16.243,0-29.408,12.921-29.408,28.875
	c0,19.352,24.719,39.294,26.562,61.55H51.634z M48.669,14.543c11.004,0,19.92,8.918,19.92,19.923c0,11.003-8.916,19.92-19.92,19.92
	c-11.004,0-19.921-8.917-19.921-19.92C28.748,23.462,37.666,14.543,48.669,14.543z"/>
</svg>
